<?xml version="1.0" encoding="UTF-8"?>
<svg version="1.1" xmlns="http://www.w3.org/2000/svg" width="512" height="512">
<path d="M0 0 C1.13824219 -0.03996094 2.27648437 -0.07992188 3.44921875 -0.12109375 C13.24514761 1.29530446 19.883845 7.28522401 26.60134888 14.12507629 C27.47968978 14.99914507 28.35803068 15.87321385 29.26298797 16.77376956 C31.67815711 19.18216617 34.08168725 21.60117046 36.48081303 24.02548492 C39.07823502 26.64461567 41.69021285 29.24916199 44.30039978 31.8555603 C48.81398718 36.36653327 53.31837128 40.886528 57.81653214 45.41288185 C64.32001591 51.95710059 70.83735729 58.48737445 77.35810064 65.01439031 C87.93865119 75.60586838 98.50800103 86.20845052 109.0703125 96.81811523 C119.32712743 107.12086572 129.58921081 117.41832145 139.85839844 127.70874023 C140.49200126 128.34365667 141.12560408 128.97857312 141.77840699 129.63272945 C144.9572216 132.81806951 148.13613979 136.00330618 151.31510949 139.18849146 C177.66365096 165.58881789 203.99401837 192.00720851 230.3125 218.4375 C233.494387 217.03219716 235.62516234 215.37035752 238.07202339 212.91010571 C238.80881706 212.17421064 239.54561074 211.43831557 240.30473149 210.68012065 C241.10724902 209.86836684 241.90976654 209.05661303 242.73660278 208.22026062 C243.59459437 207.36045005 244.45258596 206.50063948 245.3365773 205.61477405 C247.71760659 203.22677946 250.09405657 200.83438561 252.46874285 198.44009316 C255.03097077 195.85895665 257.59904439 193.28364876 260.16651917 190.70773315 C264.6159884 186.24224927 269.0620532 181.77339914 273.50610733 177.30252647 C280.53397659 170.23273879 287.5716367 163.17274275 294.61080933 156.11421204 C297.01961749 153.69852375 299.42834955 151.28275959 301.83704948 148.86696339 C302.43903285 148.26320837 303.04101622 147.65945334 303.66124151 147.03740272 C310.51394243 140.16420517 317.36431013 133.28868399 324.21386719 126.41235352 C324.84000179 125.78377635 325.4661364 125.15519919 326.11124478 124.50757424 C336.25138844 114.32744822 346.38557681 104.14140868 356.51845516 93.95405187 C366.92594278 83.49109226 377.34307904 73.0378028 387.76834285 62.59255534 C394.19567622 56.15216051 400.61490991 49.70389975 407.02388732 43.24523733 C411.4199339 38.81642117 415.82506243 34.39677512 420.23736496 29.98415454 C422.78072899 27.44002557 425.31986384 24.89202648 427.84806633 22.3328228 C430.59397319 19.55343671 433.35923383 16.79382392 436.12649536 14.03569031 C436.91562856 13.23062866 437.70476176 12.42556702 438.51780808 11.59610957 C444.46547257 5.71738692 450.68208992 1.21244389 459.0703125 -0.19140625 C467.89975796 -0.01727566 473.36893347 1.03169254 480.0625 6.8125 C487.20737197 15.14818397 488.10653937 21.66984485 487.3125 32.4375 C484.13939837 46.66764037 463.71249934 61.17531446 453.87355125 70.99251437 C451.38858695 73.47310902 448.90656609 75.95664602 446.42416382 78.43980408 C442.13597351 82.72851554 437.84597455 87.01541069 433.55469704 91.30103302 C427.35044016 97.49711911 421.14898795 103.6960062 414.94818922 109.89555284 C404.88465429 119.95690597 394.81889414 130.01602979 384.75170898 140.07373047 C374.97969535 149.83654736 365.20874578 159.60042719 355.43920898 169.36572266 C354.83573884 169.96893008 354.2322687 170.5721375 353.61051158 171.19362393 C350.58270484 174.22012552 347.55491883 177.24664785 344.52714312 180.27318048 C319.4588085 205.33116965 294.38685175 230.38553195 269.3125 255.4375 C270.71288666 258.60281343 272.35964218 260.73160823 274.80586624 263.16858196 C275.53417782 263.89902554 276.2624894 264.62946912 277.01287103 265.38204736 C277.81616082 266.17746511 278.61945061 266.97288286 279.44708252 267.79240417 C280.29802042 268.64293423 281.14895832 269.49346428 282.02568221 270.36976796 C284.38893268 272.72993023 286.75658641 275.085514 289.12616181 277.43931592 C291.68070575 279.97906191 294.22944166 282.52462415 296.77882385 285.06954956 C301.19833137 289.47986822 305.621319 293.88667157 310.04651642 298.29128075 C316.45266731 304.66790107 322.85186259 311.05146605 329.24908754 317.43703977 C339.6388366 327.80776848 350.03194375 338.17512398 360.42822266 348.53930664 C361.05055628 349.15972233 361.6728899 349.78013802 362.31408212 350.41935418 C369.25275107 357.33649032 376.19223399 364.25280901 383.13262939 371.16821289 C385.6468597 373.67341208 388.16108278 376.17861851 390.67529297 378.68383789 C391.29565718 379.30198044 391.91602139 379.920123 392.55518451 380.55699714 C402.90934909 390.87440435 413.2576599 401.19766124 423.60142207 411.52549726 C429.97899589 417.89275068 436.36155194 424.2549283 442.75065532 430.61061291 C447.13212435 434.96989854 451.50815751 439.33459158 455.8800045 443.70352676 C458.40042344 446.22190256 460.92322002 448.73776792 463.45272255 451.24702263 C466.2000017 453.97241501 468.93546212 456.70948132 471.66998291 459.44767761 C472.46434982 460.23194175 473.25871672 461.0162059 474.07715535 461.82423562 C481.57813176 469.37333804 487.39984963 476.1637321 487.625 487.125 C487.56020603 494.98126936 486.00237483 499.32290809 480.9375 505.1875 C474.99357928 510.28228919 470.57191701 512.58926197 462.75 512.8125 C461.59371094 512.86148438 460.43742187 512.91046875 459.24609375 512.9609375 C449.40749989 511.65173037 442.7507564 505.59955226 436.02365112 498.74992371 C435.14531022 497.87585493 434.26696932 497.00178615 433.36201203 496.10123044 C430.94684289 493.69283383 428.54331275 491.27382954 426.14418697 488.84951508 C423.54676498 486.23038433 420.93478715 483.62583801 418.32460022 481.0194397 C413.81101282 476.50846673 409.30662872 471.988472 404.80846786 467.46211815 C398.30498409 460.91789941 391.78764271 454.38762555 385.26689936 447.86060969 C374.68634881 437.26913162 364.11699897 426.66654948 353.5546875 416.05688477 C343.29787257 405.75413428 333.03578919 395.45667855 322.76660156 385.16625977 C322.13299874 384.53134333 321.49939592 383.89642688 320.84659301 383.24227055 C317.6677784 380.05693049 314.48886021 376.87169382 311.30989051 373.68650854 C284.96134904 347.28618211 258.63098163 320.86779149 232.3125 294.4375 C229.130613 295.84280284 226.99983766 297.50464248 224.55297661 299.96489429 C223.81618294 300.70078936 223.07938926 301.43668443 222.32026851 302.19487935 C221.11649222 303.41251007 221.11649222 303.41251007 219.88839722 304.65473938 C219.03040563 305.51454995 218.17241404 306.37436052 217.2884227 307.26022595 C214.90739341 309.64822054 212.53094343 312.04061439 210.15625715 314.43490684 C207.59402923 317.01604335 205.02595561 319.59135124 202.45848083 322.16726685 C198.0090116 326.63275073 193.5629468 331.10160086 189.11889267 335.57247353 C182.09102341 342.64226121 175.0533633 349.70225725 168.01419067 356.76078796 C165.60538251 359.17647625 163.19665045 361.59224041 160.78795052 364.00803661 C160.18596715 364.61179163 159.58398378 365.21554666 158.96375849 365.83759728 C152.11105757 372.71079483 145.26068987 379.58631601 138.41113281 386.46264648 C137.78499821 387.09122365 137.1588636 387.71980081 136.51375522 388.36742576 C126.37361156 398.54755178 116.23942319 408.73359132 106.10654484 418.92094813 C95.69905722 429.38390774 85.28192096 439.8371972 74.85665715 450.28244466 C68.42932378 456.72283949 62.01009009 463.17110025 55.60111268 469.62976267 C51.2050661 474.05857883 46.79993757 478.47822488 42.38763504 482.89084546 C39.84427101 485.43497443 37.30513616 487.98297352 34.77693367 490.5421772 C32.03102681 493.32156329 29.26576617 496.08117608 26.49850464 498.83930969 C25.70937144 499.64437134 24.92023824 500.44943298 24.10719192 501.27889043 C18.17218347 507.14510375 11.96796684 511.59912144 3.625 513.1015625 C-4.13978479 513.00999664 -10.38923184 512.25382271 -16.6875 507.4375 C-22.30029168 501.63761527 -24.97064107 495.85838394 -25.125 487.75 C-25.16496094 486.61175781 -25.20492188 485.47351563 -25.24609375 484.30078125 C-23.82969554 474.50485239 -17.83977599 467.866155 -10.99992371 461.14865112 C-10.12585493 460.27031022 -9.25178615 459.39196932 -8.35123044 458.48701203 C-5.94283383 456.07184289 -3.52382954 453.66831275 -1.09951508 451.26918697 C1.51961567 448.67176498 4.12416199 446.05978715 6.7305603 443.44960022 C11.24153327 438.93601282 15.761528 434.43162872 20.28788185 429.93346786 C26.83210059 423.42998409 33.36237445 416.91264271 39.88939031 410.39189936 C50.48086838 399.81134881 61.08345052 389.24199897 71.69311523 378.6796875 C81.99586572 368.42287257 92.29332145 358.16078919 102.58374023 347.89160156 C103.21865667 347.25799874 103.85357312 346.62439592 104.50772945 345.97159301 C107.69306951 342.7927784 110.87830618 339.61386021 114.06349146 336.43489051 C140.46381789 310.08634904 166.88220851 283.75598163 193.3125 257.4375 C191.90719716 254.255613 190.24535752 252.12483766 187.78510571 249.67797661 C187.04921064 248.94118294 186.31331557 248.20438926 185.55512065 247.44526851 C184.74336684 246.64275098 183.93161303 245.84023346 183.09526062 245.01339722 C182.23545005 244.15540563 181.37563948 243.29741404 180.48977405 242.4134227 C178.10177946 240.03239341 175.70938561 237.65594343 173.31509316 235.28125715 C170.73395665 232.71902923 168.15864876 230.15095561 165.58273315 227.58348083 C161.11724927 223.1340116 156.64839914 218.6879468 152.17752647 214.24389267 C145.10773879 207.21602341 138.04774275 200.1783633 130.98921204 193.13919067 C128.57352375 190.73038251 126.15775959 188.32165045 123.74196339 185.91295052 C123.13820837 185.31096715 122.53445334 184.70898378 121.91240272 184.08875849 C115.03920517 177.23605757 108.16368399 170.38568987 101.28735352 163.53613281 C100.65877635 162.90999821 100.03019919 162.2838636 99.38257424 161.63875522 C89.20244822 151.49861156 79.01640868 141.36442319 68.82905187 131.23154484 C58.36609226 120.82405722 47.9128028 110.40692096 37.46755534 99.98165715 C31.02716051 93.55432378 24.57889975 87.13509009 18.12023733 80.72611268 C13.69142117 76.3300661 9.27177512 71.92493757 4.85915454 67.51263504 C2.31502557 64.96927101 -0.23297352 62.43013616 -2.7921772 59.90193367 C-5.57156329 57.15602681 -8.33117608 54.39076617 -11.08930969 51.62350464 C-12.29690216 50.43980484 -12.29690216 50.43980484 -13.52889043 49.23219192 C-19.39510375 43.29718347 -23.84912144 37.09296684 -25.3515625 28.75 C-25.25999664 20.98521521 -24.50382271 14.73576816 -19.6875 8.4375 C-13.88761527 2.82470832 -8.10838394 0.15435893 0 0 Z " fill="#1E201D" transform="translate(24.6875,-0.4375)"/>
</svg>
