<?xml version="1.0" encoding="UTF-8"?>
<svg version="1.1" xmlns="http://www.w3.org/2000/svg" width="870" height="500">
<path d="M0 0 C287.1 0 574.2 0 870 0 C870 165 870 330 870 500 C582.9 500 295.8 500 0 500 C0 335 0 170 0 0 Z " fill="#E9E9E9" transform="translate(0,0)"/>
<path d="M0 0 C10.37103296 -0.093018 20.74196533 -0.16392558 31.11333179 -0.20724869 C35.93011612 -0.22805031 40.7466133 -0.25623095 45.56323242 -0.30175781 C50.21871925 -0.34548214 54.87393132 -0.36919284 59.52960777 -0.37950897 C61.29848233 -0.38685292 63.06734326 -0.40119299 64.83609962 -0.42292023 C85.78546113 -0.66983309 85.78546113 -0.66983309 94.71875 6.04296875 C95.3065625 6.75066406 95.894375 7.45835938 96.5 8.1875 C97.1084375 8.88230469 97.716875 9.57710937 98.34375 10.29296875 C103.22744529 18.2750462 103.48226712 26.3243148 103.625 35.5 C103.67573244 37.84383895 103.73020374 40.18760104 103.7890625 42.53125 C103.80662598 43.55798828 103.82418945 44.58472656 103.84228516 45.64257812 C103.73728776 47.95673066 103.73728776 47.95673066 105 49 C105.09959621 50.84159023 105.13080411 52.68696967 105.1328125 54.53125 C105.13410156 55.65144531 105.13539063 56.77164063 105.13671875 57.92578125 C105.13285156 59.10527344 105.12898437 60.28476563 105.125 61.5 C105.12886719 62.67949219 105.13273438 63.85898438 105.13671875 65.07421875 C105.13478516 66.75451172 105.13478516 66.75451172 105.1328125 68.46875 C105.13168457 69.50451172 105.13055664 70.54027344 105.12939453 71.60742188 C105 74 105 74 104 75 C103.90024968 77.51136104 103.86117817 79.98903415 103.875 82.5 C103.87113281 83.20253906 103.86726562 83.90507812 103.86328125 84.62890625 C103.55609069 88.10428808 103.55609069 88.10428808 105 91 C105.09971786 92.91458282 105.13080589 94.83282317 105.1328125 96.75 C105.13410156 97.9153125 105.13539063 99.080625 105.13671875 100.28125 C105.13285156 101.5084375 105.12898437 102.735625 105.125 104 C105.12886719 105.2271875 105.13273438 106.454375 105.13671875 107.71875 C105.13478516 109.46671875 105.13478516 109.46671875 105.1328125 111.25 C105.13168457 112.32765625 105.13055664 113.4053125 105.12939453 114.515625 C105 117 105 117 104 118 C103.89631116 120.84964193 103.85842285 123.67534561 103.86196899 126.52563477 C103.85914771 127.43077127 103.85632643 128.33590778 103.85341966 129.26847267 C103.84503281 132.32612567 103.84373191 135.38374266 103.84228516 138.44140625 C103.83761978 140.62396854 103.83247668 142.80652985 103.82688904 144.98908997 C103.81558405 149.70250355 103.80716135 154.41591073 103.80076981 159.1293335 C103.79011242 166.58380505 103.7698723 174.03823084 103.74765015 181.49267578 C103.71708046 191.94742358 103.68785999 202.4021727 103.66210938 212.85693359 C103.66047119 213.52091439 103.65883301 214.18489519 103.65714519 214.86899662 C103.630897 225.6134459 103.61223485 236.35789862 103.59551747 247.10236633 C103.57807509 258.13479327 103.54901498 269.16715117 103.5106281 280.19952488 C103.48955904 286.39313726 103.47410102 292.58665385 103.47182083 298.78030396 C103.46967187 304.61122336 103.45377675 310.44194362 103.42743111 316.27280235 C103.42024515 318.41048776 103.41813372 320.54819732 103.42153358 322.68589211 C103.42544088 325.61032787 103.41093258 328.53413156 103.39199829 331.45849609 C103.39752799 332.29927987 103.40305768 333.14006365 103.40875494 334.00632572 C103.32336884 341.67672305 101.6583629 348.92191186 96.5 354.8125 C95.9121875 355.52019531 95.324375 356.22789062 94.71875 356.95703125 C84.99584527 364.26317949 73.74895961 363.53240496 62.20703125 363.390625 C60.40671929 363.38315053 58.60639911 363.37746331 56.80607605 363.37347412 C52.10253839 363.35831258 47.3995068 363.31911435 42.69616699 363.2746582 C37.88280072 363.23349916 33.06935147 363.21541934 28.25585938 363.1953125 C18.8370191 363.1526094 9.41855188 363.08447518 0 363 C0 359.37 0 355.74 0 352 C-1.5778125 352.0928125 -1.5778125 352.0928125 -3.1875 352.1875 C-7.32355799 351.98408731 -8.85991162 351.63088486 -12 349 C-15.28562833 344.55996171 -16.85740825 340.86438374 -16.5703125 335.28515625 C-15.46185177 330.84372112 -12.83542991 327.43677233 -9 325 C-6.03 324.67 -3.06 324.34 0 324 C0 313.11 0 302.22 0 291 C-10.3066959 291.19744466 -10.3066959 291.19744466 -20.61206055 291.45043945 C-21.89894775 291.46292725 -23.18583496 291.47541504 -24.51171875 291.48828125 C-25.82615967 291.51446533 -27.14060059 291.54064941 -28.49487305 291.56762695 C-32.85978775 290.86076433 -34.26453644 289.38848016 -37 286 C-38.60729993 282.78540014 -38.61930855 279.47611897 -38 276 C-35.5625 273.0625 -35.5625 273.0625 -33 271 C-32.67 270.67 -32.34 270.34 -32 270 C-29.6243148 269.9116033 -27.27791326 269.88469695 -24.90234375 269.90234375 C-23.83905602 269.90446617 -23.83905602 269.90446617 -22.75428772 269.90663147 C-20.48198288 269.91224557 -18.20977525 269.92480037 -15.9375 269.9375 C-14.40039204 269.94251319 -12.86328255 269.94707641 -11.32617188 269.95117188 C-7.55071333 269.9613703 -3.77546596 269.98094268 0 270 C0 265.38 0 260.76 0 256 C-0.99 255.67 -1.98 255.34 -3 255 C-3.125 248.25 -3.125 248.25 -2 246 C-1.34 246 -0.68 246 0 246 C-0.495 237.09 -0.495 237.09 -1 228 C-1.99 228.33 -2.98 228.66 -4 229 C-3.69217504 227.35328588 -3.37860766 225.70764424 -3.0625 224.0625 C-2.80146484 222.68771484 -2.80146484 222.68771484 -2.53515625 221.28515625 C-2 219 -2 219 -1 218 C-0.87666122 216.35802057 -0.82208835 214.71083023 -0.79467773 213.06445312 C-0.77473755 211.99975296 -0.75479736 210.9350528 -0.73425293 209.83808899 C-0.7175354 208.66433212 -0.70081787 207.49057526 -0.68359375 206.28125 C-0.66276733 205.05991867 -0.64194092 203.83858734 -0.6204834 202.58024597 C-0.56538573 199.24590575 -0.51508653 195.91156636 -0.46757126 192.57711411 C-0.43761786 190.50814086 -0.40577277 188.43920524 -0.37332153 186.37026978 C0.03438253 160.24664075 0.11745138 134.12660837 0 108 C-0.6141124 108.21062576 -1.22822479 108.42125153 -1.86094666 108.63825989 C-2.66858963 108.91207993 -3.4762326 109.18589996 -4.30834961 109.46801758 C-5.10808701 109.74051834 -5.9078244 110.0130191 -6.73179626 110.29377747 C-9.34941232 111.10879219 -11.83003462 111.49507286 -14.5625 111.6875 C-15.40941406 111.75324219 -16.25632812 111.81898438 -17.12890625 111.88671875 C-18.05509766 111.94279297 -18.05509766 111.94279297 -19 112 C-19.495 113.485 -19.495 113.485 -20 115 C-20.99 114.67 -21.98 114.34 -23 114 C-23.73046875 112.15234375 -23.73046875 112.15234375 -24.1875 109.9375 C-24.34605469 109.20402344 -24.50460937 108.47054687 -24.66796875 107.71484375 C-24.77753906 107.14894531 -24.88710938 106.58304687 -25 106 C-25.99 106.33 -26.98 106.66 -28 107 C-28.0270043 108.45823212 -28.04639787 109.91660675 -28.0625 111.375 C-28.07410156 112.18710938 -28.08570313 112.99921875 -28.09765625 113.8359375 C-28.14466334 116.04937142 -28.14466334 116.04937142 -27 118 C-25.68 118 -24.36 118 -23 118 C-22.85304688 118.54527344 -22.70609375 119.09054688 -22.5546875 119.65234375 C-20.74001315 125.75340408 -18.21156936 131.16736972 -14 136 C-13.11699219 136.45246094 -12.23398437 136.90492188 -11.32421875 137.37109375 C-10.17373047 138.17740234 -10.17373047 138.17740234 -9 139 C-8.51171875 141.91796875 -8.51171875 141.91796875 -8.6875 145.1875 C-8.73261719 146.27417969 -8.77773438 147.36085937 -8.82421875 148.48046875 C-8.91123047 149.72763672 -8.91123047 149.72763672 -9 151 C-9.54914063 151.10828125 -10.09828125 151.2165625 -10.6640625 151.328125 C-21.36053554 154.40470253 -29.23001382 161.08389474 -34.703125 170.5 C-37.02279166 174.97164657 -38.30300703 179.00488374 -39 184 C-53.28889287 177.54903256 -61.03023948 161.96862739 -66.421875 148.08203125 C-71.3217827 130.43574203 -68.17744805 110.71625139 -59.3125 95 C-49.30752133 79.04205902 -34.07661072 68.3663577 -15.75 64.125 C-10.20101752 62.97006824 -5.91880246 63 0 63 C0 50.46 0 37.92 0 25 C-5.01960938 25.06960937 -5.01960938 25.06960937 -10.140625 25.140625 C-13.38068118 25.17181744 -16.62072066 25.19610709 -19.86083984 25.21972656 C-22.11319461 25.23984556 -24.36549713 25.26714408 -26.61767578 25.30175781 C-29.85462331 25.35026209 -33.09088047 25.37296605 -36.328125 25.390625 C-37.83925873 25.42159271 -37.83925873 25.42159271 -39.38092041 25.45318604 C-46.33498536 25.45541953 -46.33498536 25.45541953 -49.67089844 23.17089844 C-51 21 -51 21 -50.9375 17.875 C-50 15 -50 15 -47 13 C-44.85493469 12.75949097 -44.85493469 12.75949097 -42.3449707 12.77294922 C-40.93384758 12.77317581 -40.93384758 12.77317581 -39.49421692 12.77340698 C-38.48163315 12.78372955 -37.46904938 12.79405212 -36.42578125 12.8046875 C-34.86732735 12.80893234 -34.86732735 12.80893234 -33.27738953 12.81326294 C-29.95564303 12.82446718 -26.63416515 12.84957236 -23.3125 12.875 C-21.06185285 12.88502948 -18.81120148 12.89415538 -16.56054688 12.90234375 C-11.04026092 12.92440735 -5.52017602 12.95893901 0 13 C0 8.71 0 4.42 0 0 Z " fill="#14415B" transform="translate(437,80)"/>
<path d="M0 0 C10.50927281 -0.0451474 21.01848142 -0.08185646 31.52782917 -0.10362434 C36.40750539 -0.11407073 41.28711193 -0.12824552 46.16674805 -0.15087891 C50.87404759 -0.17257681 55.58128003 -0.18456219 60.28862572 -0.18975449 C62.08640792 -0.19345574 63.88418637 -0.20068316 65.68194008 -0.21146011 C68.19600038 -0.2259345 70.70978183 -0.22797965 73.22387695 -0.22705078 C73.97050095 -0.23424133 74.71712494 -0.24143188 75.4863739 -0.24884033 C79.21512838 -0.23388917 80.8128989 -0.12473406 84 2 C84.37489682 3.99657965 84.37489682 3.99657965 84.37473011 6.50405121 C84.38193665 7.4577669 84.3891432 8.41148259 84.39656812 9.39409876 C84.38550669 10.9766572 84.38550669 10.9766572 84.3742218 12.59118652 C84.37819621 13.70629404 84.38217061 14.82140155 84.38626546 15.9703002 C84.39594215 19.73228032 84.38403773 23.4938894 84.37231445 27.25585938 C84.37474065 29.9425407 84.37834142 32.62919692 84.38337708 35.31587219 C84.39288247 41.87092981 84.38625008 48.42587762 84.37411413 54.98092711 C84.36051718 62.60823532 84.36212995 70.23551715 84.36424746 77.86283439 C84.36743989 91.46831194 84.35575511 105.07373718 84.33618164 118.67919922 C84.3171764 131.89308261 84.31009377 145.1069047 84.31567383 158.32080078 C84.32172641 172.69626591 84.32156413 187.07170404 84.310188 201.44716692 C84.30898066 202.97892284 84.30777467 204.51067877 84.30657005 206.04243469 C84.30596651 206.7961654 84.30536298 207.5498961 84.30474115 208.32646713 C84.30085555 213.64804234 84.3012581 218.96960753 84.3031559 224.29118347 C84.30527415 230.77293752 84.30008194 237.25463777 84.28554235 243.73637664 C84.27827964 247.04595252 84.27530171 250.35543354 84.27878571 253.66501808 C84.28198501 257.2463714 84.27298271 260.82748484 84.26069641 264.40881348 C84.2663654 265.99137192 84.2663654 265.99137192 84.27214891 267.60590124 C84.26340062 269.03647478 84.26340062 269.03647478 84.25447559 270.49594879 C84.25360882 271.32341441 84.25274204 272.15088002 84.251849 273.00342035 C84 275 84 275 82 277 C79.37974279 277.18791915 76.86608685 277.25185785 74.24560547 277.22705078 C73.44552063 277.22734283 72.64543579 277.22763489 71.82110596 277.22793579 C69.16969047 277.22653956 66.51855406 277.2109647 63.8671875 277.1953125 C62.03158726 277.19158341 60.19598502 277.18873595 58.36038208 277.18673706 C53.52372768 277.1790924 48.68719297 277.1594368 43.85058594 277.1373291 C38.91733418 277.11688857 33.98406313 277.10773919 29.05078125 277.09765625 C19.36712639 277.07619165 9.68359186 277.04100277 0 277 C0 269.41 0 261.82 0 254 C1.81886719 253.95101562 3.63773437 253.90203125 5.51171875 253.8515625 C7.90366092 253.77652118 10.29558727 253.70097394 12.6875 253.625 C14.48477539 253.57859375 14.48477539 253.57859375 16.31835938 253.53125 C17.47529297 253.49257813 18.63222656 253.45390625 19.82421875 253.4140625 C20.88729248 253.3826416 21.95036621 253.3512207 23.0456543 253.31884766 C26.07121042 252.99231462 28.29006312 252.37078519 31 251 C33.79311491 246.34480848 33.57306697 241.34436487 32.3125 236.1875 C30.57235418 233.28725697 29.1965228 233.01364702 26 232 C23.00664919 231.63814773 23.00664919 231.63814773 19.82421875 231.5859375 C18.08881836 231.52792969 18.08881836 231.52792969 16.31835938 231.46875 C15.12017578 231.4378125 13.92199219 231.406875 12.6875 231.375 C10.8612207 231.31699219 10.8612207 231.31699219 8.99804688 231.2578125 C5.99884772 231.16371998 2.99965177 231.07807791 0 231 C0 228.69 0 226.38 0 224 C14.52 224 29.04 224 44 224 C44 217.4 44 210.8 44 204 C22.22 203.505 22.22 203.505 0 203 C0 201.02 0 199.04 0 197 C14.52 197 29.04 197 44 197 C44 190.4 44 183.8 44 177 C22.22 176.505 22.22 176.505 0 176 C0 170.06 0 164.12 0 158 C5.28 157.01 10.56 156.02 16 155 C14.02 155.33 12.04 155.66 10 156 C8.20932194 156.06305204 6.41662421 156.08671114 4.625 156.0625 C3.75101562 156.05347656 2.87703125 156.04445313 1.9765625 156.03515625 C0.99816406 156.01775391 0.99816406 156.01775391 0 156 C-0.1238722 150.96469037 -0.21446514 145.93027303 -0.2746582 140.89379883 C-0.29975714 139.18172755 -0.33384429 137.46976296 -0.37719727 135.75805664 C-0.43805739 133.29286355 -0.46625432 130.82909015 -0.48828125 128.36328125 C-0.51408768 127.60163162 -0.5398941 126.83998199 -0.56648254 126.05525208 C-0.56861356 121.99037373 -0.17248426 120.21687359 2.390625 116.99414062 C5 115 5 115 7.23828125 114.73046875 C9.15885417 115.15364583 11.07942708 115.57682292 13 116 C11.02 115.01 9.04 114.02 7 113 C6.51522988 108.89965275 6.32418848 105.08582233 7 101 C8.76714039 98.83299572 10.63222502 97.47698213 12.90234375 95.85546875 C16.14995262 92.98281658 17.30139066 89.44852347 18.796875 85.453125 C20.15470697 82.68455852 21.55434542 81.78816699 24 80 C25.62177511 73.62101792 24.59374824 69.87062359 22 64 C21.69707031 63.14664063 21.39414062 62.29328125 21.08203125 61.4140625 C18.54239016 54.34453097 15.74662196 51.31613622 9 48 C9.53109375 48.3403125 10.0621875 48.680625 10.609375 49.03125 C15.81384698 52.60220157 19.1087867 55.88901704 21 62 C21.5 65.75 21.5 65.75 21 69 C19 71.4375 19 71.4375 17 73 C13.68441485 68.61487125 12.45003347 65.62541841 12 60 C11.21753906 60.5775 10.43507813 61.155 9.62890625 61.75 C8.11103516 62.86375 8.11103516 62.86375 6.5625 64 C5.55316406 64.7425 4.54382813 65.485 3.50390625 66.25 C1 68 1 68 0 68 C0 54.14 0 40.28 0 26 C3.96 26.33 7.92 26.66 12 27 C6.06 26.01 6.06 26.01 0 25 C0 16.75 0 8.5 0 0 Z " fill="#15425C" transform="translate(438,118)"/>
<path d="M0 0 C1.27371712 -0.00087616 1.27371712 -0.00087616 2.57316589 -0.00177002 C5.37634337 0.00101391 8.17845389 0.03212011 10.98144531 0.06347656 C12.92628397 0.07093786 14.87113014 0.07663132 16.815979 0.08062744 C21.93223871 0.09589249 27.04804346 0.13518195 32.16412354 0.17944336 C37.38572027 0.22037719 42.60739059 0.23863443 47.82910156 0.25878906 C58.07282309 0.30167537 68.31608768 0.37203249 78.55957031 0.45410156 C78.55957031 9.03410156 78.55957031 17.61410156 78.55957031 26.45410156 C76.47644531 26.72222656 74.39332031 26.99035156 72.24707031 27.26660156 C54.03597671 29.93342169 36.76743095 36.77886984 24.92285156 51.55957031 C15.59297291 64.52516098 11.38486084 77.04414017 11.37207031 92.89160156 C11.35370117 94.08366211 11.35370117 94.08366211 11.33496094 95.29980469 C11.29354754 112.26549281 19.18053975 128.14227933 30.52441406 140.46972656 C33.33111394 143.20639362 36.26959595 145.32932645 39.55957031 147.45410156 C39.62144531 146.15472656 39.68332031 144.85535156 39.74707031 143.51660156 C40.58751085 135.98814834 44.90914922 128.5019896 50.55957031 123.45410156 C54.12750136 120.94792643 57.81105211 118.6784378 61.55957031 116.45410156 C62.90535156 115.60912109 62.90535156 115.60912109 64.27832031 114.74707031 C66.55957031 113.45410156 66.55957031 113.45410156 68.55957031 113.45410156 C68.88957031 109.82410156 69.21957031 106.19410156 69.55957031 102.45410156 C67.90957031 101.79410156 66.25957031 101.13410156 64.55957031 100.45410156 C60.22018505 96.01473047 55.78187338 89.86274865 55.37207031 83.57910156 C55.46488281 82.52722656 55.46488281 82.52722656 55.55957031 81.45410156 C54.23957031 81.78410156 52.91957031 82.11410156 51.55957031 82.45410156 C49.42370353 79.25030139 49.32824856 78.43470189 49.43457031 74.76660156 C49.45261719 73.95835937 49.47066406 73.15011719 49.48925781 72.31738281 C49.51246094 71.7025 49.53566406 71.08761719 49.55957031 70.45410156 C51.53957031 69.95910156 51.53957031 69.95910156 53.55957031 69.45410156 C55.55957031 72.45410156 55.55957031 72.45410156 56.05957031 75.07910156 C56.22457031 75.86285156 56.38957031 76.64660156 56.55957031 77.45410156 C57.21957031 77.78410156 57.87957031 78.11410156 58.55957031 78.45410156 C59.05457031 76.47410156 59.05457031 76.47410156 59.55957031 74.45410156 C60.42839844 74.32132812 61.29722656 74.18855469 62.19238281 74.05175781 C63.92101562 73.78685547 63.92101562 73.78685547 65.68457031 73.51660156 C66.82152344 73.34257812 67.95847656 73.16855469 69.12988281 72.98925781 C72.27692367 72.49820474 75.41824323 71.98022567 78.55957031 71.45410156 C79.28891235 98.28429634 79.75206973 125.10141767 79.36349487 151.94143677 C79.3277012 154.43899212 79.29667349 156.93662056 79.27053833 159.43429565 C79.23121761 162.94654492 79.17202729 166.45788076 79.10644531 169.96972656 C79.09208687 171.51808952 79.09208687 171.51808952 79.07743835 173.09773254 C78.91136455 180.11814503 77.71283318 186.14757582 74.55957031 192.45410156 C75.87957031 191.46410156 77.19957031 190.47410156 78.55957031 189.45410156 C78.55957031 196.05410156 78.55957031 202.65410156 78.55957031 209.45410156 C77.89957031 209.45410156 77.23957031 209.45410156 76.55957031 209.45410156 C76.55957031 212.42410156 76.55957031 215.39410156 76.55957031 218.45410156 C77.21957031 218.78410156 77.87957031 219.11410156 78.55957031 219.45410156 C78.55957031 224.07410156 78.55957031 228.69410156 78.55957031 233.45410156 C76.30757813 233.46828125 74.05558594 233.48246094 71.73535156 233.49707031 C69.54420178 233.52772147 67.35335234 233.56680162 65.16235352 233.60668945 C63.64455863 233.62982608 62.12660418 233.64425504 60.60864258 233.6496582 C58.42070602 233.65898078 56.23526345 233.70003307 54.04785156 233.74707031 C52.07619019 233.77063599 52.07619019 233.77063599 50.06469727 233.79467773 C45.75094293 234.60622962 44.26474637 236.07119359 41.55957031 239.45410156 C40.55624747 243.15867821 41.3640817 246.74733505 42.37207031 250.39160156 C43.44624783 252.78541842 43.44624783 252.78541842 46.55957031 253.45410156 C48.99737408 253.60679338 51.41240933 253.71092853 53.85253906 253.77050781 C54.55856766 253.79128891 55.26459625 253.81207001 55.99201965 253.83348083 C58.24360582 253.89877648 60.49530693 253.95776803 62.74707031 254.01660156 C64.27507691 254.05980582 65.80307196 254.10342072 67.33105469 254.14746094 C71.0737772 254.25520906 74.81658911 254.35443011 78.55957031 254.45410156 C78.55957031 262.70410156 78.55957031 270.95410156 78.55957031 279.45410156 C67.13761469 279.52181449 55.71579186 279.57688132 44.29368114 279.60953808 C38.99022669 279.62520979 33.6869164 279.64647557 28.38354492 279.68041992 C23.26775504 279.71295962 18.15210401 279.73094323 13.03621864 279.73873329 C11.08212408 279.7442865 9.12803731 279.75513025 7.17400169 279.77129173 C4.44192311 279.79299439 1.71042207 279.7960715 -1.02172852 279.79467773 C-2.23984726 279.81085648 -2.23984726 279.81085648 -3.48257446 279.82736206 C-8.96621073 279.79698951 -8.96621073 279.79698951 -11.14800888 278.21942228 C-12.80819404 275.95177134 -12.81724821 274.64562302 -12.82074642 271.84820652 C-12.82918636 270.89721657 -12.8376263 269.94622663 -12.846322 268.9664188 C-12.84031195 267.91954787 -12.83430191 266.87267694 -12.82810974 265.79408264 C-12.83349528 264.68361539 -12.83888082 263.57314813 -12.84442955 262.42903036 C-12.8587965 258.68865986 -12.85158377 254.94863891 -12.84448242 251.20825195 C-12.85018142 248.53451913 -12.85704261 245.86081187 -12.86528015 243.18708801 C-12.88249977 236.66693594 -12.88330163 230.14688011 -12.87806725 223.6267112 C-12.87403012 218.3283702 -12.87546365 213.0300577 -12.88081551 207.73171806 C-12.88156393 206.97838117 -12.88231235 206.22504427 -12.88308345 205.44887898 C-12.88461489 203.9186025 -12.88615323 202.38832603 -12.88769842 200.85804956 C-12.90143494 186.4986482 -12.89597773 172.13930127 -12.88451321 157.77990114 C-12.87457994 144.63629169 -12.88752103 131.49282298 -12.9114474 118.34923524 C-12.93581612 104.86127826 -12.94545175 91.3733869 -12.93879467 77.88540834 C-12.93529744 70.30976961 -12.9375676 62.73423915 -12.9550457 55.15861702 C-12.96973993 48.70947669 -12.97043978 42.26052087 -12.95297479 35.81138427 C-12.94443912 32.51967502 -12.94452977 29.22836511 -12.95762634 25.93666077 C-12.97073262 22.37115975 -12.95937991 18.80656526 -12.94163513 15.24110413 C-12.95124014 14.19646391 -12.96084514 13.1518237 -12.97074121 12.07552773 C-12.89925928 5.13004313 -12.89925928 5.13004313 -10.6455965 1.80997753 C-7.24506686 -0.28088307 -3.86687196 -0.06958776 0 0 Z " fill="#8EC9E8" transform="translate(358.4404296875,116.5458984375)"/>
<path d="M0 0 C0.86879791 -0.00029205 1.73759583 -0.00058411 2.63272095 -0.00088501 C5.49507751 0.00050471 8.35717151 0.01604909 11.21948242 0.03173828 C13.20773679 0.03546968 15.19599301 0.03831606 17.18424988 0.04031372 C22.41048279 0.04794015 27.63660408 0.06758019 32.86279297 0.08972168 C38.19847097 0.1102014 43.53416705 0.11931999 48.86987305 0.12939453 C59.33411473 0.15082697 69.79827366 0.18495102 80.26245117 0.22705078 C80.26245117 4.18705078 80.26245117 8.14705078 80.26245117 12.22705078 C78.15036255 12.26463501 78.15036255 12.26463501 75.99560547 12.30297852 C70.77920181 12.3970407 65.56293169 12.4972644 60.34667969 12.59936523 C58.08759684 12.64271858 55.82848114 12.68439336 53.56933594 12.72436523 C50.32501313 12.78205791 47.08085577 12.84575547 43.83666992 12.91064453 C42.82408615 12.92735703 41.81150238 12.94406952 40.76823425 12.96128845 C39.8274855 12.98123367 38.88673676 13.00117889 37.91748047 13.02172852 C36.67504829 13.04504494 36.67504829 13.04504494 35.40751648 13.0688324 C33.0769187 13.15245801 33.0769187 13.15245801 30.26245117 14.22705078 C30.18817279 17.56957803 30.19698164 20.03064219 31.26245117 23.22705078 C55.51745117 23.72205078 55.51745117 23.72205078 80.26245117 24.22705078 C80.26245117 28.18705078 80.26245117 32.14705078 80.26245117 36.22705078 C78.63752998 36.23585014 78.63752998 36.23585014 76.9797821 36.24482727 C66.78228143 36.3019834 56.58499547 36.37470753 46.38771343 36.46276569 C41.14488441 36.50753705 35.90213431 36.54677817 30.65917969 36.57348633 C25.6015958 36.59945191 20.54431455 36.63980616 15.4869175 36.69023705 C13.5552121 36.70695152 11.6234543 36.71843718 9.69168663 36.72466469 C6.99058506 36.73425612 4.2902658 36.76225515 1.58935547 36.79467773 C0.78662704 36.79324265 -0.01610138 36.79180756 -0.84315491 36.79032898 C-4.88849693 36.77981444 -4.88849693 36.77981444 -8.44310445 38.46375364 C-10.10840527 40.73223286 -10.11246593 42.03764757 -10.11227894 44.83853245 C-10.11948548 45.79075579 -10.12669202 46.74297914 -10.13411695 47.72405773 C-10.12674266 48.77229291 -10.11936838 49.82052808 -10.11177063 50.90052795 C-10.11574504 52.01240634 -10.11971944 53.12428472 -10.12381428 54.26985639 C-10.1334786 58.01491187 -10.12159396 61.75959348 -10.10986328 65.50463867 C-10.11228987 68.18161544 -10.11589112 70.85856703 -10.1209259 73.53553772 C-10.13042533 80.06305285 -10.12380428 86.59045762 -10.11166296 93.11796457 C-10.09805901 100.71402352 -10.09967937 108.31005602 -10.10179629 115.90612405 C-10.10498779 129.45558652 -10.09330882 143.00499646 -10.07373047 156.55444336 C-10.05472185 169.71298828 -10.0476437 182.87147163 -10.05322266 196.0300293 C-10.0592752 210.34800298 -10.05911331 224.66594957 -10.04773682 238.98392099 C-10.04652949 240.50948266 -10.0453235 242.03504433 -10.04411888 243.560606 C-10.04351534 244.31127761 -10.0429118 245.06194921 -10.04228998 245.83536844 C-10.03840464 251.13491388 -10.03880681 256.43444926 -10.04070473 261.73399544 C-10.04282292 268.18827699 -10.03763111 274.64250452 -10.02309117 281.09677083 C-10.01582856 284.39217691 -10.0128505 287.68748774 -10.01633453 290.98290253 C-10.01953386 294.54887601 -10.01053154 298.11460856 -9.99824524 301.68055725 C-10.00202456 302.73102315 -10.00580389 303.78148904 -10.00969774 304.86378723 C-10.00386554 305.81340283 -9.99803335 306.76301843 -9.99202442 307.74141026 C-9.99115764 308.56529604 -9.99029087 309.38918182 -9.98939782 310.23803383 C-9.91461198 312.45844172 -9.91461198 312.45844172 -7.73754883 314.22705078 C-4.93805046 314.44473096 -2.23455155 314.5384773 0.56762695 314.54589844 C1.42623322 314.55594406 2.28483948 314.56598969 3.16946411 314.57633972 C6.01555697 314.60730104 8.86155523 314.62424267 11.70776367 314.64111328 C13.67789532 314.65981453 15.64801887 314.67938714 17.61813354 314.69979858 C22.80978635 314.75123607 28.00146517 314.79079948 33.1932373 314.82794189 C38.48851006 314.86790889 43.78367357 314.91903446 49.07885742 314.96923828 C59.47331206 315.06613503 69.86782822 315.15049565 80.26245117 315.22705078 C80.26245117 317.86705078 80.26245117 320.50705078 80.26245117 323.22705078 C79.39233398 323.32179688 79.39233398 323.32179688 78.50463867 323.41845703 C73.01230814 324.27946594 69.68030802 325.65457598 66.29370117 330.16064453 C64.46253531 333.82991248 64.47970092 337.25366138 65.26245117 341.22705078 C66.63242274 344.09852072 66.63242274 344.09852072 68.26245117 346.22705078 C68.26245117 346.88705078 68.26245117 347.54705078 68.26245117 348.22705078 C72.22943003 350.03022299 75.94470537 350.71908069 80.26245117 351.22705078 C80.26245117 354.52705078 80.26245117 357.82705078 80.26245117 361.22705078 C69.3871918 361.34335215 58.51208251 361.43197184 47.63632584 361.48611164 C42.58520655 361.51210772 37.53451549 361.54732149 32.48364258 361.60424805 C27.60120233 361.65892637 22.71917168 361.68854628 17.83644867 361.701437 C15.98185537 361.710613 14.12728225 361.72853036 12.2728653 361.75570107 C-10.03462622 362.06928742 -10.03462622 362.06928742 -18.75213623 354.47114563 C-25.93733733 346.95552614 -26.17317682 338.9750335 -26.12522888 329.05615234 C-26.12940481 327.71041037 -26.13488375 326.36467192 -26.14154869 325.01893997 C-26.15598794 321.33128615 -26.15176343 317.64385611 -26.14438188 313.95619011 C-26.13964879 309.97520735 -26.15216123 305.9942729 -26.16239929 302.01330566 C-26.17958921 294.2186725 -26.180427 286.42411993 -26.17518639 278.62947273 C-26.17114422 272.29435534 -26.1725888 265.95926176 -26.17793465 259.62414551 C-26.17868307 258.72234723 -26.17943149 257.82054896 -26.18020259 256.89142346 C-26.18173407 255.05941231 -26.18327242 253.22740117 -26.18481756 251.39539003 C-26.19854302 234.21839925 -26.19310433 217.04145403 -26.18163235 199.86446428 C-26.1716974 184.14946717 -26.18464507 168.43458775 -26.20856654 152.71960878 C-26.23294679 136.58163402 -26.24256821 120.4437141 -26.23591381 104.30572128 C-26.23241953 95.24613776 -26.23466761 86.1866448 -26.25216484 77.1270752 C-26.26687328 69.4158697 -26.26753996 61.70481853 -26.25009393 53.9936161 C-26.24157077 50.05953591 -26.23946631 46.12573159 -26.25474548 42.19166565 C-26.26856346 38.58924112 -26.26386728 34.98732954 -26.24450625 31.3849349 C-26.23895346 29.46675574 -26.25304182 27.54855065 -26.26786035 25.63042068 C-26.19944303 17.64695758 -25.26232542 13.07417274 -19.77270508 7.08251953 C-19.12172852 6.53208984 -18.47075195 5.98166016 -17.80004883 5.41455078 C-17.15165039 4.85123047 -16.50325195 4.28791016 -15.83520508 3.70751953 C-10.77730592 0.13779182 -6.03739001 -0.05331622 0 0 Z " fill="#F1F1F1" transform="translate(356.737548828125,80.77294921875)"/>
<path d="M0 0 C0.99 0.495 0.99 0.495 2 1 C2.06863084 35.45569865 2.12151083 69.91138172 2.15319599 104.36713393 C2.15694822 108.43274435 2.16083117 112.49835463 2.16479492 116.56396484 C2.16558185 117.37337221 2.16636878 118.18277957 2.16717956 119.01671442 C2.18024198 132.13138198 2.20390042 145.24601019 2.23145839 158.36065438 C2.25948934 171.81233886 2.27617136 185.26400269 2.28226548 198.71571517 C2.28638673 207.01959147 2.29941446 215.32335654 2.3237494 223.62719861 C2.3395781 229.3174808 2.34440688 235.00770529 2.34050413 240.69800791 C2.33857808 243.98357301 2.34320734 247.2689017 2.35761642 250.55444145 C2.37246396 254.11337628 2.36898162 257.67182877 2.36076355 261.23077393 C2.36950207 262.27356955 2.3782406 263.31636517 2.38724393 264.39076066 C2.37828421 265.81870725 2.37828421 265.81870725 2.36914349 267.27550125 C2.37028265 268.09721605 2.37142181 268.91893084 2.37259549 269.76554608 C1.90383597 272.57669535 0.94223879 273.93781415 -1 276 C-4.61909951 277.2063665 -7.91823243 277.13189056 -11.68432617 277.11352539 C-12.4650499 277.11367142 -13.24577362 277.11381744 -14.05015564 277.1139679 C-16.63112159 277.11327114 -19.2120154 277.10548982 -21.79296875 277.09765625 C-23.58230042 277.09579123 -25.3716326 277.09436772 -27.16096497 277.09336853 C-31.87097584 277.08954999 -36.58095589 277.07972533 -41.29095459 277.06866455 C-46.09696028 277.05843621 -50.90297094 277.05386786 -55.70898438 277.04882812 C-65.13933646 277.03810249 -74.56966567 277.02103399 -84 277 C-84 279.31 -84 281.62 -84 284 C-83.29875 284.020625 -82.5975 284.04125 -81.875 284.0625 C-77.65466086 285.43869755 -75.47975562 288.40592382 -73 292 C-71.80788562 295.57634313 -71.74073426 298.24064683 -72 302 C-73.5 304.9375 -73.5 304.9375 -75 307 C-75.33 306.34 -75.66 305.68 -76 305 C-75.67 304.34 -75.34 303.68 -75 303 C-74.48487383 298.90842645 -74.05632731 294.76410454 -76.046875 291.04296875 C-79.33333316 287.0702208 -81.66324543 285.93367546 -86.625 285.4375 C-87.44226563 285.35371094 -88.25953125 285.26992188 -89.1015625 285.18359375 C-89.72804688 285.12300781 -90.35453125 285.06242187 -91 285 C-91 284.67 -91 284.34 -91 284 C-89.02 284 -87.04 284 -85 284 C-85 273.11 -85 262.22 -85 251 C-95.3066959 251.19744466 -95.3066959 251.19744466 -105.61206055 251.45043945 C-107.54239136 251.46917114 -107.54239136 251.46917114 -109.51171875 251.48828125 C-110.82615967 251.51446533 -112.14060059 251.54064941 -113.49487305 251.56762695 C-117.85978775 250.86076433 -119.26453644 249.38848016 -122 246 C-123.60729993 242.78540014 -123.61930855 239.47611897 -123 236 C-120.5625 233.0625 -120.5625 233.0625 -118 231 C-117.67 230.67 -117.34 230.34 -117 230 C-114.6243148 229.9116033 -112.27791326 229.88469695 -109.90234375 229.90234375 C-108.83905602 229.90446617 -108.83905602 229.90446617 -107.75428772 229.90663147 C-105.48198288 229.91224557 -103.20977525 229.92480037 -100.9375 229.9375 C-99.40039204 229.94251319 -97.86328255 229.94707641 -96.32617188 229.95117188 C-92.55071333 229.9613703 -88.77546596 229.98094268 -85 230 C-85 225.38 -85 220.76 -85 216 C-85.99 215.67 -86.98 215.34 -88 215 C-88.125 208.25 -88.125 208.25 -87 206 C-86.34 206 -85.68 206 -85 206 C-85.495 197.09 -85.495 197.09 -86 188 C-86.99 188.33 -87.98 188.66 -89 189 C-88.69217504 187.35328588 -88.37860766 185.70764424 -88.0625 184.0625 C-87.88847656 183.14597656 -87.71445312 182.22945312 -87.53515625 181.28515625 C-87 179 -87 179 -86 178 C-85.87677242 176.22096643 -85.82210981 174.43713797 -85.79467773 172.65405273 C-85.7647599 170.94239174 -85.7647599 170.94239174 -85.73423767 169.19615173 C-85.70916893 167.33368553 -85.70916893 167.33368553 -85.68359375 165.43359375 C-85.66281265 164.16983414 -85.64203156 162.90607452 -85.62062073 161.60401917 C-85.56616286 158.23881367 -85.5159572 154.87359827 -85.46777344 151.50830078 C-85.41760241 148.07644099 -85.36189345 144.64467169 -85.30664062 141.21289062 C-85.19929809 134.47533239 -85.09755675 127.73770664 -85 121 C-84.67 121 -84.34 121 -84 121 C-84 131.89 -84 142.78 -84 154 C-77.565 153.01 -77.565 153.01 -71 152 C-69.35 152 -67.7 152 -66 152 C-68.35123449 154.35123449 -69.53619163 154.51145477 -72.75 155.125 C-73.59046875 155.29257812 -74.4309375 155.46015625 -75.296875 155.6328125 C-78 156 -78 156 -84 156 C-84 161.94 -84 167.88 -84 174 C-82.67234619 173.99476318 -81.34469238 173.98952637 -79.97680664 173.98413086 C-75.06991241 173.96608574 -70.16302113 173.95456979 -65.25610352 173.94506836 C-63.12881986 173.94002702 -61.00153969 173.93319409 -58.87426758 173.92456055 C-55.82372174 173.91248621 -52.77322155 173.90676986 -49.72265625 173.90234375 C-48.28672874 173.89460182 -48.28672874 173.89460182 -46.8217926 173.88670349 C-45.94095505 173.88662796 -45.06011749 173.88655243 -44.15258789 173.88647461 C-43.37315323 173.884254 -42.59371857 173.88203339 -41.79066467 173.87974548 C-40 174 -40 174 -39 175 C-38.89988704 177.98866642 -38.86126025 180.94910453 -38.875 183.9375 C-38.87113281 184.77474609 -38.86726563 185.61199219 -38.86328125 186.47460938 C-38.86457031 187.27576172 -38.86585938 188.07691406 -38.8671875 188.90234375 C-38.86831543 189.63960693 -38.86944336 190.37687012 -38.87060547 191.13647461 C-39 193 -39 193 -40 195 C-54.52 195 -69.04 195 -84 195 C-84 196.98 -84 198.96 -84 201 C-83.45098526 200.99777939 -82.90197052 200.99555878 -82.33631897 200.99327087 C-76.64292041 200.97121642 -70.9495339 200.95609274 -65.25610352 200.94506836 C-63.12881986 200.94002702 -61.00153969 200.93319409 -58.87426758 200.92456055 C-55.82372174 200.91248621 -52.77322155 200.90676986 -49.72265625 200.90234375 C-48.28672874 200.89460182 -48.28672874 200.89460182 -46.8217926 200.88670349 C-45.94095505 200.88662796 -45.06011749 200.88655243 -44.15258789 200.88647461 C-43.37315323 200.884254 -42.59371857 200.88203339 -41.79066467 200.87974548 C-40 201 -40 201 -39 202 C-38.89988704 204.98866642 -38.86126025 207.94910453 -38.875 210.9375 C-38.87113281 211.77474609 -38.86726563 212.61199219 -38.86328125 213.47460938 C-38.86457031 214.27576172 -38.86585938 215.07691406 -38.8671875 215.90234375 C-38.86831543 216.63960693 -38.86944336 217.37687012 -38.87060547 218.13647461 C-39 220 -39 220 -40 222 C-54.52 222 -69.04 222 -84 222 C-84 224.31 -84 226.62 -84 229 C-82.85785034 228.97643433 -82.85785034 228.97643433 -81.69262695 228.95239258 C-78.2326606 228.88991547 -74.7728131 228.85096828 -71.3125 228.8125 C-70.11431641 228.78736328 -68.91613281 228.76222656 -67.68164062 228.73632812 C-65.94624023 228.72182617 -65.94624023 228.72182617 -64.17578125 228.70703125 C-62.58117065 228.68346558 -62.58117065 228.68346558 -60.9543457 228.65942383 C-56.55382886 229.16671422 -53.94271276 230.82973589 -51.1875 234.25 C-49.66892674 237.76669597 -49.59281517 240.19960827 -50 244 C-51.82412334 248.22428562 -53.92363438 249.9745592 -58 252 C-60.9543457 252.34057617 -60.9543457 252.34057617 -64.17578125 252.29296875 C-65.33271484 252.28330078 -66.48964844 252.27363281 -67.68164062 252.26367188 C-68.87982422 252.23853516 -70.07800781 252.21339844 -71.3125 252.1875 C-72.53001953 252.17396484 -73.74753906 252.16042969 -75.00195312 252.14648438 C-78.00149193 252.11119568 -81.00080266 252.05739074 -84 252 C-84 259.59 -84 267.18 -84 275 C-73.32573563 274.89210205 -62.651537 274.78006901 -51.97739506 274.66066074 C-47.02149288 274.60538798 -42.06558486 274.55196116 -37.10961914 274.50268555 C-32.3309593 274.45510604 -27.55237358 274.40276582 -22.7738018 274.34705925 C-20.94648511 274.32660653 -19.11914806 274.30789839 -17.29179573 274.29092598 C-14.74141166 274.26694626 -12.19116903 274.23688336 -9.64086914 274.20532227 C-8.87770386 274.1995668 -8.11453857 274.19381134 -7.32824707 274.18788147 C-3.8730815 274.44732933 -3.8730815 274.44732933 -1 273 C-0.89832325 271.54061061 -0.86602579 270.07632952 -0.8613348 268.61341 C-0.85586036 267.66045196 -0.85038591 266.70749391 -0.84474558 265.72565836 C-0.84376747 264.66634231 -0.84278936 263.60702627 -0.84178162 262.51560974 C-0.83684364 261.39994552 -0.83190566 260.2842813 -0.82681805 259.13480908 C-0.81135791 255.36518356 -0.8030595 251.59557517 -0.79467773 247.82592773 C-0.78510589 245.13615667 -0.7751402 242.44638978 -0.76467896 239.75662231 C-0.74288461 233.94968318 -0.72475099 228.14274175 -0.70907402 222.335783 C-0.68640225 213.9398018 -0.65825575 205.54384606 -0.62875474 197.1478864 C-0.58104573 183.52739447 -0.53779055 169.90689216 -0.49731445 156.28637695 C-0.45797634 143.05199373 -0.41655418 129.81761974 -0.37231445 116.58325195 C-0.36959018 115.76806488 -0.36686591 114.95287781 -0.36405908 114.11298811 C-0.35037988 110.02360717 -0.33665955 105.93422638 -0.32291877 101.84484565 C-0.20890202 67.89658283 -0.1021042 33.94830074 0 0 Z " fill="#4A6C80" transform="translate(522,120)"/>
<path d="M0 0 C0 5.28 0 10.56 0 16 C-1.65 16.226875 -3.3 16.45375 -5 16.6875 C-12.17346319 18.00601573 -16.69315573 20.69315573 -21.8125 25.8125 C-27.39769644 33.9509291 -28.67455442 43.25864063 -28 53 C-27.67 53.66 -27.34 54.32 -27 55 C-25.68 55 -24.36 55 -23 55 C-22.85304688 55.54527344 -22.70609375 56.09054688 -22.5546875 56.65234375 C-20.74001315 62.75340408 -18.21156936 68.16736972 -14 73 C-13.11699219 73.45246094 -12.23398437 73.90492188 -11.32421875 74.37109375 C-10.17373047 75.17740234 -10.17373047 75.17740234 -9 76 C-8.51171875 78.91796875 -8.51171875 78.91796875 -8.6875 82.1875 C-8.73261719 83.27417969 -8.77773438 84.36085938 -8.82421875 85.48046875 C-8.88222656 86.31191406 -8.94023437 87.14335937 -9 88 C-9.54914063 88.10828125 -10.09828125 88.2165625 -10.6640625 88.328125 C-21.36053554 91.40470253 -29.23001382 98.08389474 -34.703125 107.5 C-37.02279166 111.97164657 -38.30300703 116.00488374 -39 121 C-53.28889287 114.54903256 -61.03023948 98.96862739 -66.421875 85.08203125 C-71.3217827 67.43574203 -68.17744805 47.71625139 -59.3125 32 C-49.30752133 16.04205902 -34.07661072 5.3663577 -15.75 1.125 C-10.39243059 0.10023001 -5.44067326 -0.28141413 0 0 Z " fill="#D7795F" transform="translate(437,143)"/>
<path d="M0 0 C2.25 0.6875 2.25 0.6875 4 2 C5.71693985 5.53858403 6.25573942 8.40950152 6.28710938 12.32177734 C6.30052368 13.3599057 6.31393799 14.39803406 6.32775879 15.46762085 C6.33303589 16.57916534 6.33831299 17.69070984 6.34375 18.8359375 C6.3583728 19.98865143 6.37299561 21.14136536 6.38806152 22.32901001 C6.43452082 26.01097157 6.46873853 29.69287991 6.5 33.375 C6.54122181 38.21634308 6.59493946 43.05731179 6.65625 47.8984375 C6.6615271 49.00593353 6.6668042 50.11342957 6.67224121 51.25448608 C6.72520818 61.25302565 6.72520818 61.25302565 11.375 69.8125 C16.71973187 74.26644323 20.86303396 74.44722486 27.73046875 74.30078125 C32.33562292 73.87712907 35.46835022 73.00492329 39 70 C43.61173987 63.19644018 43.53233175 55.98869819 43.43359375 48.046875 C43.44319229 45.54687435 43.452963 43.04687436 43.46289062 40.546875 C43.45426662 36.6340427 43.43733864 32.72137287 43.4152832 28.80859375 C43.40079685 25.01269311 43.41598387 21.21774147 43.43359375 17.421875 C43.41711288 16.25098328 43.40063202 15.08009155 43.38365173 13.87371826 C43.43931433 4.84730235 43.43931433 4.84730235 46.38842773 1.74926758 C49.22782499 -0.15260036 50.29533846 -0.57167505 53.625 -0.0625 C54.38039063 0.02902344 55.13578125 0.12054688 55.9140625 0.21484375 C58.69923089 1.26319365 59.46425082 2.46697701 61 5 C61.3742218 7.58439636 61.3742218 7.58439636 61.37231445 10.54370117 C61.38165764 12.21144844 61.38165764 12.21144844 61.39118958 13.91288757 C61.38197983 15.11081436 61.37277008 16.30874115 61.36328125 17.54296875 C61.36402901 19.40022331 61.36402901 19.40022331 61.36479187 21.29499817 C61.36185138 24.58787028 61.34483824 27.88031081 61.3225708 31.1730957 C61.31254721 33.17805646 61.31217848 35.18276414 61.31567383 37.18774414 C61.32212176 41.05626573 61.31411804 44.92446918 61.30078125 48.79296875 C61.30169266 49.98077438 61.30260406 51.16858002 61.30354309 52.39237976 C61.20492437 64.05851083 59.67083183 73.19728836 51.3125 81.75 C40.92725317 89.67276562 27.00422278 90.20328232 14.55078125 88.5390625 C5.96537006 86.84391743 0.72184118 83.82243148 -5.3125 77.625 C-9.51675952 71.08504074 -11.09227661 63.99505925 -11.19287109 56.27929688 C-11.20893402 55.15463013 -11.22499695 54.02996338 -11.24154663 52.87121582 C-11.28615427 47.7622963 -11.32701358 42.65350211 -11.35009766 37.54443359 C-11.36346467 34.84780162 -11.39138 32.15192141 -11.43212891 29.45556641 C-11.48678052 25.56389592 -11.50874987 21.67325204 -11.5234375 17.78125 C-11.54610687 16.57593628 -11.56877625 15.37062256 -11.59213257 14.12878418 C-11.5685698 4.83056482 -11.5685698 4.83056482 -8.65869141 1.72851562 C-5.42524688 -0.37366869 -3.78959114 -0.56440719 0 0 Z " fill="#CC735B" transform="translate(150,209)"/>
<path d="M0 0 C2.25 0.6875 2.25 0.6875 4 2 C5.71693985 5.53858403 6.25573942 8.40950152 6.28710938 12.32177734 C6.30052368 13.3599057 6.31393799 14.39803406 6.32775879 15.46762085 C6.33303589 16.57916534 6.33831299 17.69070984 6.34375 18.8359375 C6.3583728 19.98865143 6.37299561 21.14136536 6.38806152 22.32901001 C6.43452082 26.01097157 6.46873853 29.69287991 6.5 33.375 C6.54122181 38.21634308 6.59493946 43.05731179 6.65625 47.8984375 C6.6615271 49.00593353 6.6668042 50.11342957 6.67224121 51.25448608 C6.72520818 61.25302565 6.72520818 61.25302565 11.375 69.8125 C17.71475465 75.09562888 23.97590257 74.70451026 32 74 C35.69895051 73.07681135 38.0244392 71.52665275 40.1368103 68.2210083 C43.30778236 61.62591574 43.57170273 55.72373079 43.5390625 48.484375 C43.55085541 47.31038147 43.56264832 46.13638794 43.57479858 44.92681885 C43.60990968 41.20107565 43.61921595 37.47589482 43.625 33.75 C43.64135712 30.00999155 43.66339686 26.27023206 43.69662476 22.53033447 C43.7162158 20.20988388 43.72559387 17.88931901 43.72354126 15.56878662 C43.73397964 13.99124603 43.73397964 13.99124603 43.74462891 12.38183594 C43.74651718 11.00025299 43.74651718 11.00025299 43.7484436 9.59075928 C44.03016482 6.68933497 44.6725506 4.59321005 46 2 C49.23627302 -0.15751534 49.83578838 -0.2536352 53.5 0.125 C54.2734375 0.18945312 55.046875 0.25390625 55.84375 0.3203125 C58.7506157 1.23660712 59.43811232 2.40829665 61 5 C61.3742218 7.58439636 61.3742218 7.58439636 61.37231445 10.54370117 C61.38165764 12.21144844 61.38165764 12.21144844 61.39118958 13.91288757 C61.38197983 15.11081436 61.37277008 16.30874115 61.36328125 17.54296875 C61.36402901 19.40022331 61.36402901 19.40022331 61.36479187 21.29499817 C61.36185138 24.58787028 61.34483824 27.88031081 61.3225708 31.1730957 C61.31254721 33.17805646 61.31217848 35.18276414 61.31567383 37.18774414 C61.32212176 41.05626573 61.31411804 44.92446918 61.30078125 48.79296875 C61.30169266 49.98077438 61.30260406 51.16858002 61.30354309 52.39237976 C61.21293223 63.11121866 60.25439169 72.84511 52.28125 80.69140625 C41.56471756 89.45348913 29.28911395 90.28419393 16 89 C6.98317529 87.51574902 -0.24363069 84.27316641 -6 77 C-9.59223697 70.42590616 -11.09567576 63.73433891 -11.19287109 56.27929688 C-11.20893402 55.15463013 -11.22499695 54.02996338 -11.24154663 52.87121582 C-11.28615427 47.7622963 -11.32701358 42.65350211 -11.35009766 37.54443359 C-11.36346467 34.84780162 -11.39138 32.15192141 -11.43212891 29.45556641 C-11.48678052 25.56389592 -11.50874987 21.67325204 -11.5234375 17.78125 C-11.54610687 16.57593628 -11.56877625 15.37062256 -11.59213257 14.12878418 C-11.5685698 4.83056482 -11.5685698 4.83056482 -8.65869141 1.72851562 C-5.42524688 -0.37366869 -3.78959114 -0.56440719 0 0 Z " fill="#153F56" transform="translate(600,208)"/>
<path d="M0 0 C6.14989115 1.25082532 9.04688205 6.32525151 12.45336914 11.35986328 C14.19505337 14.11414316 15.8884643 16.89162788 17.5625 19.6875 C18.70474817 21.57220948 19.84792543 23.45635629 20.9921875 25.33984375 C21.48702637 26.16347412 21.98186523 26.98710449 22.49169922 27.83569336 C23.5463718 29.68390317 23.5463718 29.68390317 24.6875 30.75 C25.21706299 29.94780029 25.74662598 29.14560059 26.29223633 28.3190918 C28.26232674 25.33675764 30.23703449 22.35750509 32.21313477 19.37915039 C33.06693273 18.09092137 33.9194848 16.80186568 34.77075195 15.51196289 C35.99622359 13.65551286 37.22617975 11.80210488 38.45703125 9.94921875 C38.83527542 9.37411057 39.21351959 8.79900238 39.60322571 8.20646667 C43.28159467 2.68775608 43.28159467 2.68775608 45.6875 0.75 C49.40719542 0.18395939 51.26449693 0.53399843 54.625 2.25 C56.6875 4.75 56.6875 4.75 56.59765625 8.42578125 C55.85841164 13.13920062 53.81433718 16.52388905 51.1875 20.4375 C50.52560669 21.46580933 50.52560669 21.46580933 49.8503418 22.51489258 C47.6481168 25.90712759 45.36484785 29.22775123 42.98828125 32.5 C42.35986328 33.37265503 42.35986328 33.37265503 41.71875 34.26293945 C40.5651697 35.84795693 39.38678405 37.41483429 38.20703125 38.98046875 C36.46319642 41.56173291 36.46319642 41.56173291 36.8605957 44.0480957 C37.88407428 47.39230516 39.4573432 49.83994998 41.3984375 52.75 C41.7672403 53.30816406 42.13604309 53.86632812 42.51602173 54.44140625 C43.69074721 56.21600937 44.87621407 57.98310909 46.0625 59.75 C47.23919643 61.51842318 48.41365072 63.28831612 49.58755493 65.05859375 C50.65547263 66.66649005 51.72871585 68.27084554 52.80224609 69.875 C56.67897088 75.7869802 58.37193507 78.67750431 57.6875 85.75 C55.61915255 88.66448959 53.47536423 89.58509819 50 90.3125 C44.83410178 89.435272 42.78576839 85.78303932 39.6875 81.75 C37.13334088 78.02843773 34.7436044 74.21666771 32.375 70.375 C31.15197195 68.40746476 29.9268155 66.44125045 28.69921875 64.4765625 C28.16772217 63.61627441 27.63622559 62.75598633 27.08862305 61.86962891 C25.72699367 59.65618966 25.72699367 59.65618966 23.6875 57.75 C23.10258789 58.64831543 22.51767578 59.54663086 21.91503906 60.47216797 C19.74022212 63.80685337 17.55315024 67.13334729 15.36230469 70.45751953 C14.41623676 71.89672294 13.47349614 73.33811936 12.53417969 74.78173828 C11.18254799 76.85776456 9.81910242 78.92558087 8.453125 80.9921875 C8.03629456 81.63807831 7.61946411 82.28396912 7.19000244 82.94943237 C5.05097975 86.15958157 3.44303063 88.54764795 -0.3125 89.75 C-3.3125 90.1875 -3.3125 90.1875 -6.3125 89.75 C-9.14372714 87.21679677 -10.22076619 85.7053421 -10.5859375 81.90234375 C-9.71792195 71.8953645 0.29610594 61.42014479 6.015625 53.4375 C6.48033203 52.78394531 6.94503906 52.13039063 7.42382812 51.45703125 C8.6875 49.75 8.6875 49.75 10.609375 47.625 C11.90670334 45.71925884 11.90670334 45.71925884 11.73046875 43.04296875 C10.27721022 38.45459069 7.75905297 34.97129564 5 31.0625 C3.90446999 29.46174039 2.81200235 27.85888052 1.72265625 26.25390625 C1.19816895 25.48191895 0.67368164 24.70993164 0.13330078 23.91455078 C-7.90794118 11.87577145 -7.90794118 11.87577145 -7.3125 4.75 C-5.17037666 1.49397252 -3.80679347 0.8619155 0 0 Z " fill="#164057" transform="translate(683.3125,207.25)"/>
<path d="M0 0 C0.495 0.99 0.495 0.99 1 2 C-1.30820508 3.15410254 -2.60784276 3.1210297 -5.17431641 3.11352539 C-6.46542831 3.11341209 -6.46542831 3.11341209 -7.78262329 3.11329651 C-9.1779982 3.10555458 -9.1779982 3.10555458 -10.6015625 3.09765625 C-11.55316254 3.0962413 -12.50476257 3.09482635 -13.48519897 3.09336853 C-16.53183097 3.08776012 -19.57839013 3.07520619 -22.625 3.0625 C-24.68749894 3.05748608 -26.74999903 3.05292299 -28.8125 3.04882812 C-33.87502817 3.03778796 -38.93750173 3.02051767 -44 3 C-44 6.96 -44 10.92 -44 15 C-16.61 15 10.78 15 39 15 C39 15.99 39 16.98 39 18 C38.34 17.67 37.68 17.34 37 17 C34.4377732 16.87773147 31.90091182 16.81434423 29.33740234 16.79467773 C28.15190544 16.77982834 28.15190544 16.77982834 26.94245911 16.76467896 C24.3236493 16.73302878 21.70482134 16.70829267 19.0859375 16.68359375 C17.27275108 16.66302726 15.45956948 16.64203087 13.64639282 16.62062073 C8.86901758 16.56536858 4.09159885 16.51597318 -0.68585205 16.46777344 C-5.55883668 16.41758134 -10.43175798 16.36188333 -15.3046875 16.30664062 C-24.86973963 16.1990206 -34.43484541 16.09809283 -44 16 C-44 24.25 -44 32.5 -44 41 C-41.36 41 -38.72 41 -36 41 C-33.53365745 41.46660535 -31.39193722 42.20268759 -29 43 C-29 43.33 -29 43.66 -29 44 C-30.93784265 43.85879286 -32.87526955 43.71187127 -34.8125 43.5625 C-35.89144531 43.48128906 -36.97039062 43.40007812 -38.08203125 43.31640625 C-41 43 -41 43 -44 42 C-44 46.95 -44 51.9 -44 57 C-43.01 57.495 -43.01 57.495 -42 58 C-42.66 58 -43.32 58 -44 58 C-43.505 70.375 -43.505 70.375 -43 83 C-40.36 81.02 -37.72 79.04 -35 77 C-34.01 76.67 -33.02 76.34 -32 76 C-30.68 79.63 -29.36 83.26 -28 87 C-27.34 87 -26.68 87 -26 87 C-23.68523864 85.09711968 -23.68523864 85.09711968 -23.625 81.875 C-24.17412399 76.20071872 -25.74464384 72.02723807 -30.046875 68.16015625 C-31.99075014 66.69535672 -33.95111455 65.31287806 -36 64 C-35.505 63.01 -35.505 63.01 -35 62 C-24.75185328 69.20435955 -20.82076691 76.59646041 -18.1875 88.75 C-17.98681122 92.22860545 -18.21292 94.02153333 -20 97 C-20.66 97.29003906 -21.32 97.58007812 -22 97.87890625 C-24.14789994 98.81509289 -24.14789994 98.81509289 -24.80078125 100.8828125 C-25.05408203 101.99269531 -25.05408203 101.99269531 -25.3125 103.125 C-26.88657783 108.49947569 -29.8372995 112.29141228 -34 116 C-34.99 116.33 -35.98 116.66 -37 117 C-36.98735952 121.07655482 -36.8637033 125.00740926 -36 129 C-33.14397465 131.39248595 -33.14397465 131.39248595 -30 132 C-30 132.33 -30 132.66 -30 133 C-34.65517241 133.12931034 -34.65517241 133.12931034 -37 132.25 C-39.28172017 131.73697956 -39.28172017 131.73697956 -41.75 133.9375 C-42.4925 134.618125 -43.235 135.29875 -44 136 C-45 135 -45 135 -45.12025452 133.01951599 C-45.11803391 132.15125687 -45.11581329 131.28299774 -45.11352539 130.38842773 C-45.11344986 129.40748642 -45.11337433 128.4265451 -45.11329651 127.4158783 C-45.10813522 126.3492244 -45.10297394 125.2825705 -45.09765625 124.18359375 C-45.0962413 123.0974025 -45.09482635 122.01121124 -45.09336853 120.8921051 C-45.08775048 117.40720925 -45.07519492 113.92237658 -45.0625 110.4375 C-45.05748733 108.08138113 -45.05292402 105.72526126 -45.04882812 103.36914062 C-45.03777519 97.57940536 -45.02101951 91.78970719 -45 86 C-45.6141124 86.21062576 -46.22822479 86.42125153 -46.86094666 86.63825989 C-47.66858963 86.91207993 -48.4762326 87.18589996 -49.30834961 87.46801758 C-50.10808701 87.74051834 -50.9078244 88.0130191 -51.73179626 88.29377747 C-54.34941232 89.10879219 -56.83003462 89.49507286 -59.5625 89.6875 C-60.40941406 89.75324219 -61.25632812 89.81898438 -62.12890625 89.88671875 C-63.05509766 89.94279297 -63.05509766 89.94279297 -64 90 C-64.33 90.99 -64.66 91.98 -65 93 C-66.485 92.505 -66.485 92.505 -68 92 C-68.73046875 90.15234375 -68.73046875 90.15234375 -69.1875 87.9375 C-69.34605469 87.20402344 -69.50460937 86.47054687 -69.66796875 85.71484375 C-69.77753906 85.14894531 -69.88710938 84.58304687 -70 84 C-70.99 84 -71.98 84 -73 84 C-72.81363462 75.73215398 -71.05688848 70.35301173 -65.39453125 64.27734375 C-59.0380108 58.3571977 -53.64243447 57 -45 57 C-45 39.18 -45 21.36 -45 3 C-60.51 3 -76.02 3 -92 3 C-92 2.67 -92 2.34 -92 2 C-90.31537155 1.9845388 -90.31537155 1.9845388 -88.59671021 1.96876526 C-78.03108563 1.87116003 -67.46552165 1.76843836 -56.8999958 1.66066074 C-51.46769393 1.60541222 -46.03538669 1.55198914 -40.60302734 1.50268555 C-35.36401443 1.45507046 -30.12506841 1.40272869 -24.8861351 1.34705925 C-22.88380466 1.32662274 -20.88145586 1.30791184 -18.87909317 1.29092598 C-16.08225088 1.26691065 -13.28553575 1.2368522 -10.48876953 1.20532227 C-9.65439362 1.1995668 -8.8200177 1.19381134 -7.96035767 1.18788147 C-3.84759131 1.23585365 -3.84759131 1.23585365 0 0 Z " fill="#507386" transform="translate(482,102)"/>
<path d="M0 0 C0.75023437 0.13535156 1.50046875 0.27070313 2.2734375 0.41015625 C3.40652344 0.57837891 3.40652344 0.57837891 4.5625 0.75 C6.98584215 1.58954737 8.06014521 2.47525837 9.6484375 4.47265625 C10.82943766 8.01565674 10.79727812 10.86210775 10.82543945 14.6027832 C10.83201065 15.32510132 10.83858185 16.04741943 10.84535217 16.79162598 C10.86505823 19.18139758 10.87674154 21.57110642 10.88671875 23.9609375 C10.89079428 24.77813955 10.8948698 25.59534161 10.89906883 26.43730736 C10.91991781 30.76248292 10.93422474 35.08762687 10.94360352 39.4128418 C10.95466731 43.87510198 10.98906987 48.33686342 11.02877522 52.79894733 C11.0549459 56.2348268 11.06329572 59.67058747 11.06688499 63.10655785 C11.07174958 64.75116533 11.08336 66.39576756 11.10192299 68.04027748 C11.12632581 70.34536685 11.12534806 72.64916615 11.1184082 74.9543457 C11.12720757 76.91933769 11.12720757 76.91933769 11.13618469 78.92402649 C10.56587783 83.07332335 9.26218513 85.23993081 6.6484375 88.47265625 C3.99042519 89.75146138 1.56409078 89.83132788 -1.3515625 89.47265625 C-4.83287883 87.39868057 -6.06642532 86.32806779 -7.3515625 82.47265625 C-7.46756439 80.05641019 -7.52952048 77.66781953 -7.54443359 75.25073242 C-7.55261108 74.51866074 -7.56078857 73.78658905 -7.56921387 73.03233337 C-7.5940223 70.6101055 -7.61057174 68.18793603 -7.625 65.765625 C-7.63032368 64.93739038 -7.63564735 64.10915577 -7.64113235 63.25582314 C-7.6678436 58.87229971 -7.68722533 54.48880458 -7.70166016 50.10522461 C-7.71500236 46.4802936 -7.74286233 42.85592513 -7.78369141 39.23120117 C-7.83302725 34.85103152 -7.85778207 30.4713723 -7.86488724 26.09093666 C-7.87159588 24.42397807 -7.88680804 22.75703069 -7.91077805 21.09023094 C-7.94246212 18.75380693 -7.94246269 16.41934684 -7.93505859 14.08276367 C-7.95146393 13.39839233 -7.96786926 12.714021 -7.98477173 12.00891113 C-7.91592503 6.68400274 -5.75695021 1.15712787 0 0 Z " fill="#CD765E" transform="translate(238.3515625,208.52734375)"/>
<path d="M0 0 C0.99 0 1.98 0 3 0 C3.08825361 3.47900249 3.14080635 6.95771117 3.1875 10.4375 C3.21263672 11.41138672 3.23777344 12.38527344 3.26367188 13.38867188 C3.33598763 20.59614177 2.23193869 26.53612263 -1 33 C0.32 32.01 1.64 31.02 3 30 C3 32.97 3 35.94 3 39 C-20.43 39 -43.86 39 -68 39 C-68 32.07 -68 25.14 -68 18 C-45.23 18 -22.46 18 1 18 C0.505 9.09 0.505 9.09 0 0 Z " fill="#E6ECEE" transform="translate(434,276)"/>
<path d="M0 0 C23.43 0 46.86 0 71 0 C71 1.65 71 3.3 71 5 C70.34 5 69.68 5 69 5 C69 7.97 69 10.94 69 14 C69.99 14.495 69.99 14.495 71 15 C71 16.65 71 18.3 71 20 C47.57 20 24.14 20 0 20 C0 13.4 0 6.8 0 0 Z " fill="#ECEEEE" transform="translate(366,321)"/>
<path d="M0 0 C2.31640625 1.03125 2.31640625 1.03125 3.7578125 3.46484375 C4.12777344 4.45613281 4.49773437 5.44742188 4.87890625 6.46875 C5.93470574 9.43874915 5.93470574 9.43874915 7.31640625 12.03125 C8.00605469 12.31097656 8.69570313 12.59070313 9.40625 12.87890625 C10.03660156 13.25917969 10.66695313 13.63945312 11.31640625 14.03125 C12.82171867 20.43064579 12.09824298 26.55275149 11.37890625 33.03125 C11.27900391 33.99675781 11.17910156 34.96226562 11.07617188 35.95703125 C10.83092512 38.31607148 10.57751485 40.67392189 10.31640625 43.03125 C8.62928543 43.08616533 6.941621 43.12444918 5.25390625 43.15625 C4.31417969 43.17945313 3.37445313 43.20265625 2.40625 43.2265625 C-3.73782627 42.83818853 -9.24437112 40.52475047 -14.87109375 38.15625 C-16.06089844 37.66382813 -17.25070312 37.17140625 -18.4765625 36.6640625 C-21.60621725 35.0706451 -23.58351538 33.83665772 -25.68359375 31.03125 C-26.16558352 23.39244242 -20.64398272 15.91417495 -16.55859375 9.90625 C-12.57355792 5.4008751 -6.16222314 0.07175806 0 0 Z " fill="#B6D8D9" transform="translate(422.68359375,232.96875)"/>
<path d="M0 0 C0.99 0 1.98 0 3 0 C5 3 5 3 5.5 5.625 C5.665 6.40875 5.83 7.1925 6 8 C6.66 8.33 7.32 8.66 8 9 C8.33 7.68 8.66 6.36 9 5 C9.86882812 4.86722656 10.73765625 4.73445312 11.6328125 4.59765625 C12.78523438 4.42105469 13.93765625 4.24445313 15.125 4.0625 C16.26195312 3.88847656 17.39890625 3.71445313 18.5703125 3.53515625 C21.71684867 3.04418193 24.8587193 2.52354678 28 2 C28 19.16 28 36.32 28 54 C21 48 21 48 19 46 C18.8046875 42.9609375 18.8046875 42.9609375 18.875 39.375 C18.89304687 38.18648437 18.91109375 36.99796875 18.9296875 35.7734375 C18.95289063 34.85820312 18.97609375 33.94296875 19 33 C17.85917969 32.62101562 17.85917969 32.62101562 16.6953125 32.234375 C10.94455906 29.60069661 7.27919677 22.69799192 5 17 C4.8125 14.125 4.8125 14.125 5 12 C3.68 12.33 2.36 12.66 1 13 C-1.11295256 9.83057116 -1.25250929 9.00370047 -1.1875 5.375 C-1.17783203 4.18003906 -1.17783203 4.18003906 -1.16796875 2.9609375 C-1 1 -1 1 0 0 Z " fill="#D5DAD6" transform="translate(409,186)"/>
<path d="M0 0 C1.34888732 0.00015905 2.69778075 0.00584927 4.04663086 0.01586914 C5.10991859 0.01799156 5.10991859 0.01799156 6.19468689 0.02015686 C8.46699173 0.02577096 10.73919936 0.03832576 13.01147461 0.05102539 C14.54858257 0.05603858 16.08569206 0.0606018 17.62280273 0.06469727 C21.39826128 0.07489569 25.17350865 0.09446808 28.94897461 0.11352539 C28.94897461 7.04352539 28.94897461 13.97352539 28.94897461 21.11352539 C24.48161197 21.2285977 20.0194243 21.32802434 15.55175781 21.38818359 C14.0336766 21.41326648 12.51571543 21.44734199 10.99804688 21.49072266 C8.81081495 21.55165832 6.62518422 21.57979434 4.43725586 21.60180664 C3.12281494 21.62799072 1.80837402 21.6541748 0.45410156 21.68115234 C-3.91081314 20.97428972 -5.31556183 19.50200555 -8.05102539 16.11352539 C-9.65832532 12.89892553 -9.67033394 9.58964436 -9.05102539 6.11352539 C-6.61352539 3.17602539 -6.61352539 3.17602539 -4.05102539 1.11352539 C-3.05102539 0.11352539 -3.05102539 0.11352539 0 0 Z " fill="#E56543" transform="translate(408.051025390625,349.886474609375)"/>
<path d="M0 0 C14.19 0 28.38 0 43 0 C43 5.94 43 11.88 43 18 C28.81 18 14.62 18 0 18 C0 16.02 0 14.04 0 12 C2.97 12.495 2.97 12.495 6 13 C4.68 12.67 3.36 12.34 2 12 C2 10.68 2 9.36 2 8 C3.32 7.67 4.64 7.34 6 7 C4.02 7.33 2.04 7.66 0 8 C0 5.36 0 2.72 0 0 Z " fill="#124059" transform="translate(438,322)"/>
<path d="M0 0 C14.19 0 28.38 0 43 0 C43 5.94 43 11.88 43 18 C28.81 18 14.62 18 0 18 C0 15.69 0 13.38 0 11 C2.97 11.495 2.97 11.495 6 12 C6.33 10.68 6.66 9.36 7 8 C3.41672247 6.99782936 3.41672247 6.99782936 0 8 C0 5.36 0 2.72 0 0 Z " fill="#13415A" transform="translate(438,295)"/>
<path d="M0 0 C0 9.24 0 18.48 0 28 C-9 31.375 -9 31.375 -13.5 31.6875 C-14.78390625 31.78611328 -14.78390625 31.78611328 -16.09375 31.88671875 C-16.7228125 31.92410156 -17.351875 31.96148437 -18 32 C-18.33 32.99 -18.66 33.98 -19 35 C-19.99 34.67 -20.98 34.34 -22 34 C-22.73046875 32.15234375 -22.73046875 32.15234375 -23.1875 29.9375 C-23.34605469 29.20402344 -23.50460937 28.47054687 -23.66796875 27.71484375 C-23.83232422 26.86599609 -23.83232422 26.86599609 -24 26 C-24.99 26 -25.98 26 -27 26 C-26.81424719 17.75932991 -25.1278484 12.15555208 -19.25390625 6.2421875 C-12.73688875 0.43993967 -9.55758757 0 0 0 Z " fill="#247E7D" transform="translate(436,160)"/>
<path d="M0 0 C4.43313946 6.6497092 9.54980908 14.73897965 8.5 22.875 C6.52576735 29.52370607 1.77053336 35.24915332 -4 39 C-5.99044184 39.69468391 -7.98975471 40.36489503 -10 41 C-10.22334904 36.26805461 -10.38615853 31.53920256 -10.49438477 26.80322266 C-10.53950884 25.19460603 -10.60083129 23.58635586 -10.67895508 21.97900391 C-11.31440313 8.56398952 -11.31440313 8.56398952 -7.99169922 4.61035156 C-5.70531043 3.09454873 -3.54864916 1.99538081 -1 1 C-0.67 0.67 -0.34 0.34 0 0 Z " fill="#124059" transform="translate(448,180)"/>
<path d="M0 0 C0.33 0 0.66 0 1 0 C1 10.89 1 21.78 1 33 C5.29 32.34 9.58 31.68 14 31 C15.65 31 17.3 31 19 31 C16.64876551 33.35123449 15.46380837 33.51145477 12.25 34.125 C10.98929687 34.37636719 10.98929687 34.37636719 9.703125 34.6328125 C7 35 7 35 1 35 C1 40.94 1 46.88 1 53 C2.32765381 52.99476318 3.65530762 52.98952637 5.02319336 52.98413086 C9.93008759 52.96608574 14.83697887 52.95456979 19.74389648 52.94506836 C21.87118014 52.94002702 23.99846031 52.93319409 26.12573242 52.92456055 C29.17627826 52.91248621 32.22677845 52.90676986 35.27734375 52.90234375 C36.71327126 52.89460182 36.71327126 52.89460182 38.1782074 52.88670349 C39.49946373 52.88659019 39.49946373 52.88659019 40.84741211 52.88647461 C42.0165641 52.88314369 42.0165641 52.88314369 43.20933533 52.87974548 C45 53 45 53 46 54 C46.10011296 56.98866642 46.13873975 59.94910453 46.125 62.9375 C46.13080078 64.19336914 46.13080078 64.19336914 46.13671875 65.47460938 C46.13542969 66.27576172 46.13414062 67.07691406 46.1328125 67.90234375 C46.13168457 68.63960693 46.13055664 69.37687012 46.12939453 70.13647461 C46 72 46 72 45 74 C30.48 74 15.96 74 1 74 C1 75.98 1 77.96 1 80 C15.52 80 30.04 80 45 80 C45 80.33 45 80.66 45 81 C30.48 81 15.96 81 1 81 C1 84.63 1 88.26 1 92 C0.67 92.99 0.34 93.98 0 95 C-0.99 94.67 -1.98 94.34 -3 94 C-3.125 87.25 -3.125 87.25 -2 85 C-1.34 85 -0.68 85 0 85 C-0.33 79.06 -0.66 73.12 -1 67 C-2.485 67.495 -2.485 67.495 -4 68 C-3.69217504 66.35328588 -3.37860766 64.70764424 -3.0625 63.0625 C-2.88847656 62.14597656 -2.71445312 61.22945313 -2.53515625 60.28515625 C-2 58 -2 58 -1 57 C-0.87677242 55.22096643 -0.82210981 53.43713797 -0.79467773 51.65405273 C-0.77473251 50.5129454 -0.75478729 49.37183807 -0.73423767 48.19615173 C-0.71752518 46.9545076 -0.70081268 45.71286346 -0.68359375 44.43359375 C-0.66281265 43.16983414 -0.64203156 41.90607452 -0.62062073 40.60401917 C-0.56616286 37.23881367 -0.5159572 33.87359827 -0.46777344 30.50830078 C-0.41760241 27.07644099 -0.36189345 23.64467169 -0.30664062 20.21289062 C-0.19929809 13.47533239 -0.09755675 6.73770664 0 0 Z M1 54 C1 56.64 1 59.28 1 62 C2.98 61.67 4.96 61.34 7 61 C7.33 62.32 7.66 63.64 8 65 C3.25 66.125 3.25 66.125 1 65 C1 67.31 1 69.62 1 72 C15.19 72 29.38 72 44 72 C44 66.06 44 60.12 44 54 C29.81 54 15.62 54 1 54 Z " fill="#517384" transform="translate(437,241)"/>
<path d="M0 0 C4.56216465 -0.14532035 9.12373362 -0.23408477 13.6875 -0.3125 C15.62786133 -0.3753418 15.62786133 -0.3753418 17.60742188 -0.43945312 C19.47817383 -0.46362305 19.47817383 -0.46362305 21.38671875 -0.48828125 C23.10701294 -0.52755737 23.10701294 -0.52755737 24.86206055 -0.56762695 C28.95610398 0.1729512 30.41178004 1.8232918 33 5 C33.6640625 7.28125 33.6640625 7.28125 33.625 9.5 C33.63789063 10.2321875 33.65078125 10.964375 33.6640625 11.71875 C32.90990391 14.30950658 31.95711324 16.17787358 29.95703125 18.02294922 C25.22633548 20.38475616 19.33202947 19.48549245 14.1875 19.3125 C12.92228516 19.28994141 11.65707031 19.26738281 10.35351562 19.24414062 C7.23447381 19.18529078 4.11784098 19.1031137 1 19 C1 17.02 1 15.04 1 13 C9.58 12.67 18.16 12.34 27 12 C27 10.68 27 9.36 27 8 C18.09 7.67 9.18 7.34 0 7 C0 4.69 0 2.38 0 0 Z " fill="#134059" transform="translate(437,351)"/>
<path d="M0 0 C0.33 0 0.66 0 1 0 C1.02505615 0.78238037 1.0501123 1.56476074 1.07592773 2.37084961 C1.19149788 5.89324949 1.31439949 9.4153556 1.4375 12.9375 C1.47681641 14.16919922 1.51613281 15.40089844 1.55664062 16.66992188 C1.59853516 17.83974609 1.64042969 19.00957031 1.68359375 20.21484375 C1.72025146 21.29886475 1.75690918 22.38288574 1.79467773 23.49975586 C1.72364265 25.939263 1.72364265 25.939263 3 27 C3.09959621 28.84159023 3.13080411 30.68696967 3.1328125 32.53125 C3.13410156 33.65144531 3.13539063 34.77164063 3.13671875 35.92578125 C3.13285156 37.10527344 3.12898437 38.28476563 3.125 39.5 C3.12886719 40.67949219 3.13273438 41.85898438 3.13671875 43.07421875 C3.13478516 44.75451172 3.13478516 44.75451172 3.1328125 46.46875 C3.13112061 48.02239258 3.13112061 48.02239258 3.12939453 49.60742188 C3 52 3 52 2 53 C1.90024968 55.51136104 1.86117817 57.98903415 1.875 60.5 C1.87113281 61.20253906 1.86726562 61.90507812 1.86328125 62.62890625 C1.55609069 66.10428808 1.55609069 66.10428808 3 69 C3.09971786 70.91458282 3.13080589 72.83282317 3.1328125 74.75 C3.13410156 75.9153125 3.13539063 77.080625 3.13671875 78.28125 C3.13285156 79.5084375 3.12898437 80.735625 3.125 82 C3.12886719 83.2271875 3.13273438 84.454375 3.13671875 85.71875 C3.13542969 86.8840625 3.13414062 88.049375 3.1328125 89.25 C3.13168457 90.32765625 3.13055664 91.4053125 3.12939453 92.515625 C3 95 3 95 2 96 C1.88964312 98.86961802 1.84502834 101.71568349 1.84178162 104.5861969 C1.83684364 105.4976835 1.83190566 106.4091701 1.82681805 107.34827751 C1.8113623 110.4269259 1.80306069 113.50555332 1.79467773 116.58422852 C1.78510555 118.78139432 1.77509587 120.97855825 1.76467896 123.17572021 C1.73755234 129.16099542 1.71658491 135.14627856 1.69667697 141.13158154 C1.67486508 147.37899058 1.64745301 153.62637491 1.62062073 159.87376404 C1.57631644 170.36627103 1.53549223 180.85878752 1.49731445 191.35131836 C1.45797477 202.16057322 1.41655223 212.96981677 1.37231445 223.77905273 C1.36959018 224.44489002 1.36686591 225.11072732 1.36405908 225.79674149 C1.35037986 229.13691889 1.33665729 232.47709611 1.32291877 235.81727326 C1.20899891 263.54482573 1.10218177 291.27240196 1 319 C0.67 319 0.34 319 0 319 C0 213.73 0 108.46 0 0 Z " fill="#617D8F" transform="translate(539,102)"/>
<path d="M0 0 C6.1782039 2.0594013 6.45247841 2.34387791 10 7 C10.99 7.639375 11.98 8.27875 13 8.9375 C17.22387744 11.84141574 19.38940144 15.16820432 21 20 C21.57289003 26.30179028 21.57289003 26.30179028 19 29.4375 C18.01 30.2109375 18.01 30.2109375 17 31 C13.68441485 26.61487125 12.45003347 23.62541841 12 18 C11.21753906 18.5775 10.43507813 19.155 9.62890625 19.75 C8.11103516 20.86375 8.11103516 20.86375 6.5625 22 C5.55316406 22.7425 4.54382813 23.485 3.50390625 24.25 C1 26 1 26 0 26 C0 17.42 0 8.84 0 0 Z " fill="#123F59" transform="translate(438,160)"/>
<path d="M0 0 C1.34888732 0.00015905 2.69778075 0.00584927 4.04663086 0.01586914 C5.10991859 0.01799156 5.10991859 0.01799156 6.19468689 0.02015686 C8.46699173 0.02577096 10.73919936 0.03832576 13.01147461 0.05102539 C14.54858257 0.05603858 16.08569206 0.0606018 17.62280273 0.06469727 C21.39823103 0.07574497 25.17358632 0.09301898 28.94897461 0.11352539 C28.94897461 3.08352539 28.94897461 6.05352539 28.94897461 9.11352539 C27.95897461 8.12352539 26.96897461 7.13352539 25.94897461 6.11352539 C25.94897461 5.45352539 25.94897461 4.79352539 25.94897461 4.11352539 C22.43150731 2.94103629 20.95901963 3.11000082 17.38647461 4.36352539 C14.61587726 5.77401132 12.31658218 7.12473503 9.94897461 9.11352539 C9.94897461 7.46352539 9.94897461 5.81352539 9.94897461 4.11352539 C6.92644905 3.42658776 4.65995042 2.92136977 1.63647461 3.73852539 C-0.66905274 5.61710323 -0.74729402 7.22807734 -1.05102539 10.11352539 C0.26897461 10.77352539 1.58897461 11.43352539 2.94897461 12.11352539 C2.94897461 12.77352539 2.94897461 13.43352539 2.94897461 14.11352539 C1.29897461 14.11352539 -0.35102539 14.11352539 -2.05102539 14.11352539 C-2.05102539 14.77352539 -2.05102539 15.43352539 -2.05102539 16.11352539 C0.58897461 15.78352539 3.22897461 15.45352539 5.94897461 15.11352539 C5.94897461 15.77352539 5.94897461 16.43352539 5.94897461 17.11352539 C9.17298034 18.07160256 12.09183137 18.24774831 15.44897461 18.23852539 C16.38741211 18.24110352 17.32584961 18.24368164 18.29272461 18.24633789 C20.90423085 18.23070689 20.90423085 18.23070689 23.10522461 17.41821289 C24.01788086 17.26739258 24.01788086 17.26739258 24.94897461 17.11352539 C26.56420898 18.59448242 26.56420898 18.59448242 27.94897461 20.11352539 C23.46498677 20.21256012 18.98158169 20.28507022 14.49682617 20.33325195 C12.97197376 20.35334138 11.44719813 20.38061855 9.92260742 20.4152832 C7.72807863 20.46392335 5.53456992 20.48651935 3.33959961 20.50415039 C2.01992188 20.52509766 0.70024414 20.54604492 -0.65942383 20.56762695 C-4.05102539 20.11352539 -4.05102539 20.11352539 -6.45043945 18.21411133 C-9.00092059 14.86689661 -9.43747186 12.39954498 -9.41430664 8.15258789 C-8.81067936 4.76448639 -6.63543059 3.1936564 -4.05102539 1.11352539 C-3.05102539 0.11352539 -3.05102539 0.11352539 0 0 Z " fill="#E56745" transform="translate(408.051025390625,349.886474609375)"/>
<path d="M0 0 C9.07799076 5.22132802 13.42312683 10.83728107 16.43359375 20.83203125 C17.53586883 25.05108413 18.36027493 28.52614801 17.3125 32.8125 C16 35 16 35 14 35.87890625 C11.85210006 36.81509289 11.85210006 36.81509289 11.19921875 38.8828125 C11.03035156 39.62273437 10.86148437 40.36265625 10.6875 41.125 C9.11342217 46.49947569 6.1627005 50.29141228 2 54 C0.515 54.495 0.515 54.495 -1 55 C-0.98735952 59.07655482 -0.8637033 63.00740926 0 67 C2.85602535 69.39248595 2.85602535 69.39248595 6 70 C6 70.33 6 70.66 6 71 C3.43851555 71.07115235 1.28787045 71.0822487 -1.1875 70.375 C-2.0846875 70.189375 -2.0846875 70.189375 -3 70 C-3.99 70.99 -3.99 70.99 -5 72 C-5.99 72 -6.98 72 -8 72 C-8 67.05 -8 62.1 -8 57 C-5.958125 55.9790625 -5.958125 55.9790625 -3.875 54.9375 C2.81737004 51.19145639 7.22379148 46.33609839 9.58984375 38.96875 C10.43715049 34.90167766 9.95024711 31.61798832 7.84375 28.03125 C6.95150704 26.68251064 6.05179955 25.3386783 5.14453125 24 C3.42812862 21.00068893 3.21375485 18.42007757 3 15 C5 16 5 16 5.8515625 18.06640625 C6.10679687 18.89011719 6.36203125 19.71382812 6.625 20.5625 C7.01558594 21.80193359 7.01558594 21.80193359 7.4140625 23.06640625 C7.60742188 23.70449219 7.80078125 24.34257812 8 25 C8.66 25 9.32 25 10 25 C12.31476136 23.09711968 12.31476136 23.09711968 12.375 19.875 C11.83052401 14.24874806 10.30815358 9.99540758 5.953125 6.23046875 C4.53039453 5.19369176 3.08316957 4.1893699 1.609375 3.2265625 C1.07828125 2.82179687 0.5471875 2.41703125 0 2 C0 1.34 0 0.68 0 0 Z " fill="#5D7C8D" transform="translate(446,164)"/>
<path d="M0 0 C10.52652818 -0.04627253 21.0530323 -0.08184327 31.57964134 -0.10362434 C36.46719318 -0.1140764 41.35467561 -0.12826144 46.2421875 -0.15087891 C50.95596629 -0.17255671 55.66967818 -0.1845579 60.38350296 -0.18975449 C62.18490274 -0.19345937 63.98629872 -0.20069374 65.78767014 -0.21146011 C68.30432901 -0.22590787 70.82070889 -0.22798078 73.33740234 -0.22705078 C74.08762161 -0.23424133 74.83784088 -0.24143188 75.61079407 -0.24884033 C80.77189568 -0.22810432 80.77189568 -0.22810432 83 2 C56.27 2 29.54 2 2 2 C2 5.3 2 8.6 2 12 C15.86 12.33 29.72 12.66 44 13 C44.495 13.99 44.495 13.99 45 15 C14.64 14.67 -15.72 14.34 -47 14 C-47 13.67 -47 13.34 -47 13 C-31.49 13 -15.98 13 0 13 C0 8.71 0 4.42 0 0 Z " fill="#3A5F75" transform="translate(437,80)"/>
<path d="M0 0 C8.91 0 17.82 0 27 0 C27.33 1.65 27.66 3.3 28 5 C27 6 27 6 24.49975586 6.11352539 C23.41573486 6.10828857 22.33171387 6.10305176 21.21484375 6.09765625 C20.04501953 6.09443359 18.87519531 6.09121094 17.66992188 6.08789062 C16.43822266 6.07951172 15.20652344 6.07113281 13.9375 6.0625 C12.08415039 6.05573242 12.08415039 6.05573242 10.19335938 6.04882812 C7.12885883 6.03699608 4.06445279 6.02051173 1 6 C1 7.98 1 9.96 1 12 C1.71655762 11.98952637 2.43311523 11.97905273 3.17138672 11.96826172 C6.40588905 11.92678701 9.64033553 11.90070108 12.875 11.875 C14.00292969 11.85824219 15.13085938 11.84148437 16.29296875 11.82421875 C17.36933594 11.81777344 18.44570313 11.81132812 19.5546875 11.8046875 C20.54968262 11.79421387 21.54467773 11.78374023 22.56982422 11.77294922 C25 12 25 12 27 14 C18.42 14 9.84 14 1 14 C1 21.59 1 29.18 1 37 C0.67 37 0.34 37 0 37 C0 24.79 0 12.58 0 0 Z " fill="#507185" transform="translate(437,358)"/>
<path d="M0 0 C3.21524305 1.40844718 5.32183868 3.10344786 7.75 5.625 C8.67039062 6.57246094 8.67039062 6.57246094 9.609375 7.5390625 C10.29773438 8.26222656 10.29773438 8.26222656 11 9 C11.66 8.34 12.32 7.68 13 7 C12.67 19.87 12.34 32.74 12 46 C10.68 46 9.36 46 8 46 C8.03552979 45.22809326 8.07105957 44.45618652 8.10766602 43.66088867 C8.26508878 40.16999288 8.41389578 36.67878183 8.5625 33.1875 C8.61857422 31.97255859 8.67464844 30.75761719 8.73242188 29.50585938 C8.78076172 28.34248047 8.82910156 27.17910156 8.87890625 25.98046875 C8.9260376 24.90692139 8.97316895 23.83337402 9.02172852 22.72729492 C9.13954675 19.90420733 9.13954675 19.90420733 8 17 C7.07960938 16.61714844 7.07960938 16.61714844 6.140625 16.2265625 C2.89423506 14.36640476 2.20730091 11.75328847 0.75 8.375 C0.22921875 7.18648437 -0.2915625 5.99796875 -0.828125 4.7734375 C-1.21484375 3.85820312 -1.6015625 2.94296875 -2 2 C-1.34 1.34 -0.68 0.68 0 0 Z " fill="#81B6B3" transform="translate(425,230)"/>
<path d="M0 0 C4.95 0 9.9 0 15 0 C14.67 0.99 14.34 1.98 14 3 C14.99 4.485 14.99 4.485 16 6 C15.48275862 9.51724138 15.48275862 9.51724138 14 11 C11.625 11.375 11.625 11.375 9 11 C7.1875 8.5 7.1875 8.5 6 6 C5.67 6.99 5.34 7.98 5 9 C5.66 9.33 6.32 9.66 7 10 C2.545 10.495 2.545 10.495 -2 11 C-2.33 9.02 -2.66 7.04 -3 5 C-2.34 5 -1.68 5 -1 5 C-0.67 3.35 -0.34 1.7 0 0 Z " fill="#17445D" transform="translate(452,297)"/>
<path d="M0 0 C0 3 0 3 -2.375 5.6875 C-5 8 -5 8 -7 8 C-6.98735952 12.07655482 -6.8637033 16.00740926 -6 20 C-3.14397465 22.39248595 -3.14397465 22.39248595 0 23 C0 23.33 0 23.66 0 24 C-2.56148445 24.07115235 -4.71212955 24.0822487 -7.1875 23.375 C-7.785625 23.25125 -8.38375 23.1275 -9 23 C-9.66 23.66 -10.32 24.32 -11 25 C-11.99 25 -12.98 25 -14 25 C-14 20.05 -14 15.1 -14 10 C-12.618125 9.278125 -11.23625 8.55625 -9.8125 7.8125 C-5.84128732 5.62019016 -2.99607324 3.38266334 0 0 Z " fill="#5D7C8D" transform="translate(452,211)"/>
<path d="M0 0 C0.33 0 0.66 0 1 0 C1.72413373 3.31143006 2.16354255 6.47844221 2.31640625 9.86328125 C2.35830078 10.74951172 2.40019531 11.63574219 2.44335938 12.54882812 C2.48267578 13.46083984 2.52199219 14.37285156 2.5625 15.3125 C2.62727539 16.70952148 2.62727539 16.70952148 2.69335938 18.13476562 C2.79897225 20.42304454 2.90107752 22.71142372 3 25 C3.54269531 24.566875 4.08539063 24.13375 4.64453125 23.6875 C5.35996094 23.130625 6.07539063 22.57375 6.8125 22 C7.52019531 21.443125 8.22789062 20.88625 8.95703125 20.3125 C11 19 11 19 14 19 C12.75803878 20.15454162 11.50607155 21.29832562 10.25 22.4375 C9.55390625 23.07558594 8.8578125 23.71367187 8.140625 24.37109375 C6 26 6 26 2 27 C2 43.17 2 59.34 2 76 C2.66 76.33 3.32 76.66 4 77 C3.01 77 2.02 77 1 77 C-0.20994726 23.71757995 -0.20994726 23.71757995 0 0 Z " fill="#668A92" transform="translate(436,160)"/>
<path d="M0 0 C8.25 0 16.5 0 25 0 C25 1.32 25 2.64 25 4 C16.75 4 8.5 4 0 4 C0 2.68 0 1.36 0 0 Z " fill="#18465E" transform="translate(438,359)"/>
<path d="M0 0 C0.33 0 0.66 0 1 0 C1 4.95 1 9.9 1 15 C15.52 15 30.04 15 45 15 C45 15.33 45 15.66 45 16 C30.48 16 15.96 16 1 16 C1 19.63 1 23.26 1 27 C0.67 27.99 0.34 28.98 0 30 C-0.99 29.67 -1.98 29.34 -3 29 C-3.125 22.25 -3.125 22.25 -2 20 C-1.34 20 -0.68 20 0 20 C0 13.4 0 6.8 0 0 Z " fill="#638293" transform="translate(437,306)"/>
<path d="M0 0 C9.57 0 19.14 0 29 0 C29 2.64 29 5.28 29 8 C27.5 6.625 27.5 6.625 26 5 C26 4.34 26 3.68 26 3 C22.4825327 1.8275109 21.01004503 1.99647543 17.4375 3.25 C14.66690265 4.66048592 12.36760757 6.01120964 10 8 C10 6.35 10 4.7 10 3 C6.7 2.34 3.4 1.68 0 1 C0 0.67 0 0.34 0 0 Z " fill="#E25934" transform="translate(408,351)"/>
<path d="M0 0 C0.66 0 1.32 0 2 0 C2.66 0.66 3.32 1.32 4 2 C4.33 1.34 4.66 0.68 5 0 C5.99 0 6.98 0 8 0 C8 1.65 8 3.3 8 5 C8.66 5 9.32 5 10 5 C10 3.35 10 1.7 10 0 C10.99 0.33 11.98 0.66 13 1 C12.34 3.97 11.68 6.94 11 10 C9.68 10.33 8.36 10.66 7 11 C7 9.02 7 7.04 7 5 C6.34 5 5.68 5 5 5 C5 6.98 5 8.96 5 11 C3.68 10.67 2.36 10.34 1 10 C0.67 6.7 0.34 3.4 0 0 Z " fill="#A4A4A4" transform="translate(420,326)"/>
<path d="M0 0 C0.66 0 1.32 0 2 0 C2.92159579 6.21170074 3.12177385 12.22609106 3.0625 18.5 C3.05798828 19.4178125 3.05347656 20.335625 3.04882812 21.28125 C3.03716326 23.52090391 3.02079614 25.76041545 3 28 C1.68 28 0.36 28 -1 28 C-0.67 18.76 -0.34 9.52 0 0 Z " fill="#8EBFBB" transform="translate(434,248)"/>
<path d="M0 0 C0 4.95 0 9.9 0 15 C-7.23214286 9.10714286 -7.23214286 9.10714286 -9 5 C-7.68921847 4.16396622 -6.37632511 3.3312426 -5.0625 2.5 C-3.96615234 1.80390625 -3.96615234 1.80390625 -2.84765625 1.09375 C-1 0 -1 0 0 0 Z " fill="#EBEDED" transform="translate(437,225)"/>
<path d="M0 0 C0.66 0 1.32 0 2 0 C1.67 0.99 1.34 1.98 1 3 C0.88187505 5.25339666 0.82303355 7.51004496 0.79467773 9.76635742 C0.78477814 10.44954544 0.77487854 11.13273346 0.76467896 11.83662415 C0.73311321 14.09287053 0.7083261 16.34913797 0.68359375 18.60546875 C0.66301996 20.17060389 0.64202338 21.73573352 0.62062073 23.30085754 C0.56544391 27.41897116 0.51601529 31.53713456 0.46777344 35.65533447 C0.41752635 39.85815864 0.36185703 44.06091058 0.30664062 48.26367188 C0.19911274 56.5090535 0.09765587 64.75449558 0 73 C-0.33 73 -0.66 73 -1 73 C-1.02312504 63.62964062 -1.04091591 54.25929099 -1.05181217 44.88890934 C-1.05704065 40.53831541 -1.06413765 36.18774093 -1.07543945 31.8371582 C-1.08626959 27.64209742 -1.0922771 23.44705541 -1.09487724 19.25198174 C-1.09673126 17.64793032 -1.10035144 16.04387997 -1.10573006 14.4398365 C-1.11294219 12.20083485 -1.11399087 9.9619117 -1.11352539 7.72290039 C-1.115746 6.44604874 -1.11796661 5.16919708 -1.12025452 3.85365295 C-1 1 -1 1 0 0 Z " fill="#7DC2E9" transform="translate(348,119)"/>
<path d="M0 0 C5.75 -0.125 5.75 -0.125 8 1 C8 4.3 8 7.6 8 11 C7.01 10.67 6.02 10.34 5 10 C5 9.01 5 8.02 5 7 C4.34 7 3.68 7 3 7 C3 8.32 3 9.64 3 11 C2.01 11 1.02 11 0 11 C0 7.37 0 3.74 0 0 Z " fill="#A4A4A4" transform="translate(410,298)"/>
<path d="M0 0 C0.99 0 1.98 0 3 0 C3.66 0.99 4.32 1.98 5 3 C5.33 2.01 5.66 1.02 6 0 C6.99 0 7.98 0 9 0 C9 3.63 9 7.26 9 11 C5 10 5 10 3.75 7.9375 C3.37875 6.9784375 3.37875 6.9784375 3 6 C2.67 7.65 2.34 9.3 2 11 C1.34 11 0.68 11 0 11 C0 7.37 0 3.74 0 0 Z " fill="#A6A6A6" transform="translate(423,298)"/>
<path d="M0 0 C0 0.66 0 1.32 0 2 C-1.65 2.33 -3.3 2.66 -5 3 C-4.65555119 5.47266765 -4.65555119 5.47266765 -4 8 C-3.34 8.33 -2.68 8.66 -2 9 C-2.33 7.68 -2.66 6.36 -3 5 C-1.68 5 -0.36 5 1 5 C1 6.98 1 8.96 1 11 C-5.40818182 11.36272727 -5.40818182 11.36272727 -7.9375 9.8125 C-9.38718434 7.33950907 -9.42317323 5.82115488 -9 3 C-6.71619742 -0.67945972 -4.04424788 -0.26961653 0 0 Z " fill="#EFE0DD" transform="translate(428,355)"/>
<path d="M0 0 C1.32 0 2.64 0 4 0 C4.99 3.63 5.98 7.26 7 11 C6.01 11 5.02 11 4 11 C4 10.01 4 9.02 4 8 C2.68 8 1.36 8 0 8 C0 8.99 0 9.98 0 11 C-0.99 11 -1.98 11 -3 11 C-2.69217504 9.35328588 -2.37860766 7.70764424 -2.0625 6.0625 C-1.88847656 5.14597656 -1.71445312 4.22945313 -1.53515625 3.28515625 C-1 1 -1 1 0 0 Z " fill="#9E9E9E" transform="translate(395,326)"/>
<path d="M0 0 C2.31 0 4.62 0 7 0 C7.33 1.65 7.66 3.3 8 5 C6.35 5.66 4.7 6.32 3 7 C3 8.32 3 9.64 3 11 C2.01 11 1.02 11 0 11 C0 7.37 0 3.74 0 0 Z " fill="#A4A4A4" transform="translate(384,326)"/>
<path d="M0 0 C0.13560864 1.74784467 0.23227209 3.49873926 0.3125 5.25 C0.39951172 6.71179688 0.39951172 6.71179688 0.48828125 8.203125 C0 11 0 11 -5 15 C-5 10.38 -5 5.76 -5 1 C-1 0 -1 0 0 0 Z " fill="#0C3A55" transform="translate(443,221)"/>
<path d="M0 0 C0.99 0 1.98 0 3 0 C3 2.97 3 5.94 3 9 C3.99 8.67 4.98 8.34 6 8 C6.33 5.36 6.66 2.72 7 0 C7.66 0 8.32 0 9 0 C9.0270043 1.45823212 9.04639787 2.91660675 9.0625 4.375 C9.07410156 5.18710937 9.08570313 5.99921875 9.09765625 6.8359375 C9 9 9 9 8 11 C5.125 11.125 5.125 11.125 2 11 C0 9 0 9 -0.1953125 6.8359375 C-0.17210937 6.02382813 -0.14890625 5.21171875 -0.125 4.375 C-0.10695313 3.55773437 -0.08890625 2.74046875 -0.0703125 1.8984375 C-0.04710937 1.27195312 -0.02390625 0.64546875 0 0 Z " fill="#A1A1A1" transform="translate(382,298)"/>
<path d="M0 0 C0.33 0.66 0.66 1.32 1 2 C4.14400965 3.12898528 7.18457414 3.13410831 10.5 3.125 C11.4384375 3.12757813 12.376875 3.13015625 13.34375 3.1328125 C15.95525625 3.1171815 15.95525625 3.1171815 18.15625 2.3046875 C18.7646875 2.20414062 19.373125 2.10359375 20 2 C20.99 2.99 21.98 3.98 23 5 C13.1 5 3.2 5 -7 5 C-6.67 4.01 -6.34 3.02 -6 2 C-4.02 2 -2.04 2 0 2 C0 1.34 0 0.68 0 0 Z " fill="#E55832" transform="translate(413,365)"/>
<path d="M0 0 C2.64 0.66 5.28 1.32 8 2 C8 3.32 8 4.64 8 6 C4.04 7.98 4.04 7.98 0 10 C0 6.7 0 3.4 0 0 Z " fill="#BEBFBD" transform="translate(428,220)"/>
<path d="M0 0 C1.98 0 3.96 0 6 0 C6 0.66 6 1.32 6 2 C4.68 2 3.36 2 2 2 C2 2.66 2 3.32 2 4 C3.32 4.33 4.64 4.66 6 5 C6.042721 6.66611905 6.04063832 8.33382885 6 10 C5 11 5 11 1.9375 11.0625 C0.968125 11.041875 -0.00125 11.02125 -1 11 C-1 10.34 -1 9.68 -1 9 C0.65 9 2.3 9 4 9 C4 8.34 4 7.68 4 7 C1.525 6.01 1.525 6.01 -1 5 C-0.67 3.35 -0.34 1.7 0 0 Z " fill="#EFDCD7" transform="translate(407,355)"/>
<path d="M0 0 C1.65 0 3.3 0 5 0 C5 0.66 5 1.32 5 2 C4.01 2 3.02 2 2 2 C2 2.66 2 3.32 2 4 C3.32 4.66 4.64 5.32 6 6 C5.125 9.875 5.125 9.875 4 11 C2.33382885 11.04063832 0.66611905 11.042721 -1 11 C-1 10.01 -1 9.02 -1 8 C0.32 8 1.64 8 3 8 C3 7.34 3 6.68 3 6 C1.68 5.67 0.36 5.34 -1 5 C-0.67 3.35 -0.34 1.7 0 0 Z " fill="#A2A2A2" transform="translate(404,326)"/>
<path d="M0 0 C1.65 0 3.3 0 5 0 C5 0.66 5 1.32 5 2 C4.01 2 3.02 2 2 2 C2 2.66 2 3.32 2 4 C3.32 4.66 4.64 5.32 6 6 C5.67 7.65 5.34 9.3 5 11 C3.02 11 1.04 11 -1 11 C-1 10.34 -1 9.68 -1 9 C0.32 9 1.64 9 3 9 C3 8.34 3 7.68 3 7 C1.68 6.34 0.36 5.68 -1 5 C-0.67 3.35 -0.34 1.7 0 0 Z " fill="#A0A0A0" transform="translate(394,298)"/>
<path d="M0 0 C1.98 0 3.96 0 6 0 C6 0.66 6 1.32 6 2 C4.68 2 3.36 2 2 2 C2 2.66 2 3.32 2 4 C3.32 4.33 4.64 4.66 6 5 C6.042721 6.66611905 6.04063832 8.33382885 6 10 C5 11 5 11 1.9375 11.0625 C0.968125 11.041875 -0.00125 11.02125 -1 11 C-1 10.01 -1 9.02 -1 8 C0.32 7.67 1.64 7.34 3 7 C2.01 6.34 1.02 5.68 0 5 C-0.1875 2.375 -0.1875 2.375 0 0 Z " fill="#A5A5A5" transform="translate(412,326)"/>
<path d="M0 0 C2.5 -0.3125 2.5 -0.3125 5 0 C5.66 0.66 6.32 1.32 7 2 C6.46428571 5.53571429 6.46428571 5.53571429 5 7 C3.33382885 7.04063832 1.66611905 7.042721 0 7 C-0.66 5.68 -1.32 4.36 -2 3 C-1.34 2.01 -0.68 1.02 0 0 Z " fill="#58778A" transform="translate(461,301)"/>
<path d="M0 0 C1.67542976 0.28604898 3.34385343 0.61781233 5 1 C5 2.98 5 4.96 5 7 C2.625 7.625 2.625 7.625 0 8 C-0.66 7.34 -1.32 6.68 -2 6 C-1.44444444 1.44444444 -1.44444444 1.44444444 0 0 Z " fill="#3D6176" transform="translate(451,328)"/>
<path d="M0 0 C2 0.125 2 0.125 4 1 C5.25 3.0625 5.25 3.0625 6 5 C4.75 6.5625 4.75 6.5625 3 8 C0.8125 7.6875 0.8125 7.6875 -1 7 C-1.625 4.625 -1.625 4.625 -2 2 C-1.34 1.34 -0.68 0.68 0 0 Z " fill="#587789" transform="translate(462,328)"/>
<path d="M0 0 C1.98 0 3.96 0 6 0 C6 0.66 6 1.32 6 2 C4.68 2 3.36 2 2 2 C2 2.99 2 3.98 2 5 C3.32 5 4.64 5 6 5 C6 5.66 6 6.32 6 7 C4.68 7 3.36 7 2 7 C2 7.66 2 8.32 2 9 C3.32 9 4.64 9 6 9 C6 9.66 6 10.32 6 11 C4.02 11 2.04 11 0 11 C0 7.37 0 3.74 0 0 Z " fill="#9A9A9A" transform="translate(402,298)"/>
<path d="M0 0 C1.65 0.33 3.3 0.66 5 1 C5.625 2.875 5.625 2.875 6 5 C5.34 5.66 4.68 6.32 4 7 C0.70285207 6.67028521 -0.6226839 6.3773161 -3 4 C-2.01 2.68 -1.02 1.36 0 0 Z " fill="#3D6176" transform="translate(440,301)"/>
<path d="M0 0 C4 1 4 1 6 4 C6.125 7.1875 6.125 7.1875 6 10 C5.01 8.68 4.02 7.36 3 6 C2.67 7.65 2.34 9.3 2 11 C1.34 11 0.68 11 0 11 C0 7.37 0 3.74 0 0 Z " fill="#F0D7D0" transform="translate(431,355)"/>
<path d="M0 0 C0.042721 1.66611905 0.04063832 3.33382885 0 5 C-1 6 -1 6 -3.5625 6.0625 C-4.7690625 6.0315625 -4.7690625 6.0315625 -6 6 C-6.33 4.02 -6.66 2.04 -7 0 C-4.3333581 -1.33332095 -2.83319697 -0.67102033 0 0 Z " fill="#5D7C8D" transform="translate(456,302)"/>
<path d="M0 0 C4.4287495 4.07911138 6.81216202 7.0058626 7.1953125 13.11328125 C7.16050781 14.69689453 7.16050781 14.69689453 7.125 16.3125 C7.10695313 17.38113281 7.08890625 18.44976562 7.0703125 19.55078125 C7.03550781 20.76314453 7.03550781 20.76314453 7 22 C5.04695481 19.07043221 4.62146952 17.72881709 4.0625 14.375 C3.14808604 9.40058806 1.72073855 4.74923839 0 0 Z " fill="#85BAB8" transform="translate(408,249)"/>
<path d="M0 0 C0.66 0 1.32 0 2 0 C2.25 7.625 2.25 7.625 0 11 C-0.99 10.67 -1.98 10.34 -3 10 C-3.3636198 5.75776898 -2.5393228 3.41831915 0 0 Z " fill="#14415A" transform="translate(460,188)"/>
<path d="M0 0 C0.66 0.33 1.32 0.66 2 1 C2.25 7.625 2.25 7.625 0 11 C0 10.34 0 9.68 0 9 C-1.32 9 -2.64 9 -4 9 C-4 8.34 -4 7.68 -4 7 C-2.68 7 -1.36 7 0 7 C0 6.34 0 5.68 0 5 C-1.32 5 -2.64 5 -4 5 C-4 4.01 -4 3.02 -4 2 C-2.68 2 -1.36 2 0 2 C0 1.34 0 0.68 0 0 Z " fill="#DEDEDE" transform="translate(408,298)"/>
<path d="M0 0 C0.33 0.66 0.66 1.32 1 2 C-6.62367116 11.24946846 -6.62367116 11.24946846 -11 13 C-14.8125 13.1875 -14.8125 13.1875 -18 13 C-16.04192718 12.0035585 -14.09122147 11.03896302 -12.0703125 10.17578125 C-6.68560248 7.78618102 -3.49102461 4.70759379 0 0 Z " fill="#B4BFC6" transform="translate(536,430)"/>
<path d="M0 0 C2.31 0 4.62 0 7 0 C7 3.3 7 6.6 7 10 C6.01 9.67 5.02 9.34 4 9 C3.20046862 5.71303767 2.90341064 4.28976808 4 1 C3.01 1 2.02 1 1 1 C0.67 1.99 0.34 2.98 0 4 C0 2.68 0 1.36 0 0 Z " fill="#9F9F9F" transform="translate(411,299)"/>
<path d="M0 0 C0.33 0 0.66 0 1 0 C1.00257813 0.75925781 1.00515625 1.51851562 1.0078125 2.30078125 C1.12492102 5.31047018 1.31171171 8.06503485 2 11 C4.87129568 13.3155324 4.87129568 13.3155324 8 14 C8 14.33 8 14.66 8 15 C5.48138718 15.06996147 3.36146024 15.10953341 0.9375 14.375 C-1.6297635 13.87811029 -2.81469177 14.67320572 -5 16 C-4.360625 15.401875 -3.72125 14.80375 -3.0625 14.1875 C-0.12860483 9.65329837 -0.18569688 5.30164592 0 0 Z " fill="#507284" transform="translate(444,220)"/>
<path d="M0 0 C0.99 0.33 1.98 0.66 3 1 C3.35412344 2.32796291 3.68521554 3.66216607 4 5 C5.47890069 6.73026102 5.47890069 6.73026102 7 8 C3.29706315 8.33663062 1.60465619 8.47736015 -1.375 6.125 C-3 4 -3 4 -3 2 C-2.01 2 -1.02 2 0 2 C0 1.34 0 0.68 0 0 Z " fill="#E3E3E3" transform="translate(409,326)"/>
<path d="M0 0 C0.33 0 0.66 0 1 0 C1 5.61 1 11.22 1 17 C0.01 17 -0.98 17 -2 17 C-1.85848172 14.9163691 -1.71162064 12.83310062 -1.5625 10.75 C-1.48128906 9.58984375 -1.40007812 8.4296875 -1.31640625 7.234375 C-1.06752213 4.69022624 -0.71885058 2.44046752 0 0 Z " fill="#7EB8B5" transform="translate(435,258)"/>
<path d="M0 0 C0.99 0 1.98 0 3 0 C3 3.63 3 7.26 3 11 C2.01 11 1.02 11 0 11 C0 7.37 0 3.74 0 0 Z " fill="#EED4CD" transform="translate(415,355)"/>
<path d="M0 0 C1.32 0 2.64 0 4 0 C4 1.98 4 3.96 4 6 C0.625 6.125 0.625 6.125 -3 6 C-3.66 5.34 -4.32 4.68 -5 4 C-4.34 4 -3.68 4 -3 4 C-2.67 3.34 -2.34 2.68 -2 2 C-1.01 2.66 -0.02 3.32 1 4 C0.67 2.68 0.34 1.36 0 0 Z " fill="#EFD8D1" transform="translate(425,360)"/>
<path d="M0 0 C0.99 0 1.98 0 3 0 C3 3.63 3 7.26 3 11 C1 9 1 9 0 6.9375 C-0.84589942 4.83134399 -0.84589942 4.83134399 -3 4 C-3 3.34 -3 2.68 -3 2 C-2.01 2 -1.02 2 0 2 C0 1.34 0 0.68 0 0 Z " fill="#DDDDDD" transform="translate(399,298)"/>
<path d="M0 0 C1.32 0.66 2.64 1.32 4 2 C3.37240135 4.92879371 2.41377341 7.36095629 1 10 C0.01 10 -0.98 10 -2 10 C-1.34 6.7 -0.68 3.4 0 0 Z " fill="#B0B0B0" transform="translate(394,327)"/>
<path d="M0 0 C0.33 0 0.66 0 1 0 C1 4.95 1 9.9 1 15 C1.66 15.33 2.32 15.66 3 16 C2.34 16 1.68 16 1 16 C1 17.65 1 19.3 1 21 C0.67 21 0.34 21 0 21 C0 19.35 0 17.7 0 16 C-2.31 16 -4.62 16 -7 16 C-7 15.67 -7 15.34 -7 15 C-4.69 15 -2.38 15 0 15 C0 10.05 0 5.1 0 0 Z " fill="#687175" transform="translate(437,144)"/>
<path d="M0 0 C2 2 2 2 3 4.0625 C3.84589942 6.16865601 3.84589942 6.16865601 6 7 C6 7.66 6 8.32 6 9 C4.68 9 3.36 9 2 9 C1.67 9.66 1.34 10.32 1 11 C-0.20272819 8.59454362 -0.10071472 7.05003047 -0.0625 4.375 C-0.05347656 3.55773437 -0.04445313 2.74046875 -0.03515625 1.8984375 C-0.02355469 1.27195312 -0.01195312 0.64546875 0 0 Z " fill="#E8E8E8" transform="translate(391,298)"/>
<path d="M0 0 C1.65 0 3.3 0 5 0 C5.33 0.99 5.66 1.98 6 3 C5.01 3.33 4.02 3.66 3 4 C3 4.99 3 5.98 3 7 C1.68 6.34 0.36 5.68 -1 5 C-0.67 3.35 -0.34 1.7 0 0 Z " fill="#E57558" transform="translate(423,357)"/>
<path d="M0 0 C-0.99 0.33 -1.98 0.66 -3 1 C-3 4.63 -3 8.26 -3 12 C-3.33 12 -3.66 12 -4 12 C-4.06058594 11.37351562 -4.12117188 10.74703125 -4.18359375 10.1015625 C-4.26738281 9.28429687 -4.35117187 8.46703125 -4.4375 7.625 C-4.51871094 6.81289063 -4.59992188 6.00078125 -4.68359375 5.1640625 C-4.89090114 2.95727195 -4.89090114 2.95727195 -6 1 C-7.65 1 -9.3 1 -11 1 C-11 0.67 -11 0.34 -11 0 C-6.53464227 -1.86921951 -4.33629181 -2.2956839 0 0 Z " fill="#E68064" transform="translate(434,354)"/>
<path d="M0 0 C2 1 2 1 2.8515625 3.06640625 C3.10679687 3.89011719 3.36203125 4.71382812 3.625 5.5625 C3.88539063 6.38878906 4.14578125 7.21507812 4.4140625 8.06640625 C4.60742188 8.70449219 4.80078125 9.34257812 5 10 C5.99 10 6.98 10 8 10 C7.67 11.65 7.34 13.3 7 15 C3.28253621 11.79528984 1.64371698 8.60240754 0 4 C0 2.68 0 1.36 0 0 Z " fill="#547487" transform="translate(449,179)"/>
<path d="M0 0 C0.66 0 1.32 0 2 0 C2 3.3 2 6.6 2 10 C1.01 9.67 0.02 9.34 -1 9 C-1.125 2.25 -1.125 2.25 0 0 Z " fill="#AAA9A9" transform="translate(435,326)"/>
<path d="M0 0 C0 2.64 0 5.28 0 8 C-1.5 6.625 -1.5 6.625 -3 5 C-3 4.34 -3 3.68 -3 3 C-4.32 2.67 -5.64 2.34 -7 2 C-7 1.67 -7 1.34 -7 1 C-1.125 0 -1.125 0 0 0 Z " fill="#E65F3B" transform="translate(437,351)"/>
<path d="M0 0 C0.33 0 0.66 0 1 0 C1.25 7.625 1.25 7.625 -1 11 C-1.66 11 -2.32 11 -3 11 C-2.69217504 9.35328588 -2.37860766 7.70764424 -2.0625 6.0625 C-1.88847656 5.14597656 -1.71445312 4.22945313 -1.53515625 3.28515625 C-1 1 -1 1 0 0 Z " fill="#A4A3A2" transform="translate(436,298)"/>
<path d="M0 0 C4.95 0.99 4.95 0.99 10 2 C10.33 2.99 10.66 3.98 11 5 C4.6 4.50769231 4.6 4.50769231 1.5625 1.9375 C1.046875 1.298125 0.53125 0.65875 0 0 Z " fill="#CBD1D5" transform="translate(606,294)"/>
<path d="M0 0 C1.65 0 3.3 0 5 0 C5.07347656 0.95712891 5.07347656 0.95712891 5.1484375 1.93359375 C5.22320312 2.75988281 5.29796875 3.58617187 5.375 4.4375 C5.44460938 5.26121094 5.51421875 6.08492188 5.5859375 6.93359375 C5.72257812 7.61550781 5.85921875 8.29742187 6 9 C6.66 9.33 7.32 9.66 8 10 C7.01 10 6.02 10 5 10 C4.67 7.69 4.34 5.38 4 3 C2.68 2.67 1.36 2.34 0 2 C0 1.34 0 0.68 0 0 Z " fill="#E46C4D" transform="translate(409,357)"/>
<path d="M0 0 C0 0.99 0 1.98 0 3 C-4.455 4.485 -4.455 4.485 -9 6 C-9.33 5.34 -9.66 4.68 -10 4 C-8.66666667 3.33333333 -7.33333333 2.66666667 -6 2 C-5.29875 1.62875 -4.5975 1.2575 -3.875 0.875 C-2 0 -2 0 0 0 Z " fill="#CED3D7" transform="translate(644,294)"/>
<path d="M0 0 C1.98 0 3.96 0 6 0 C6 0.66 6 1.32 6 2 C4.68 2 3.36 2 2 2 C2 2.66 2 3.32 2 4 C2.66 4.33 3.32 4.66 4 5 C2.68 5 1.36 5 0 5 C0 3.35 0 1.7 0 0 Z " fill="#9C9C9C" transform="translate(412,326)"/>
<path d="M0 0 C2.31 0.66 4.62 1.32 7 2 C7 2.66 7 3.32 7 4 C5.68 4 4.36 4 3 4 C2.67 4.99 2.34 5.98 2 7 C1.34 4.69 0.68 2.38 0 0 Z " fill="#E8E8E8" transform="translate(400,330)"/>
<path d="M0 0 C0.99 0.33 1.98 0.66 3 1 C2.34 3.97 1.68 6.94 1 10 C0.01 10 -0.98 10 -2 10 C-2 9.01 -2 8.02 -2 7 C-1.34 7 -0.68 7 0 7 C0 4.69 0 2.38 0 0 Z " fill="#99999A" transform="translate(430,326)"/>
<path d="M0 0 C0.99 0 1.98 0 3 0 C2.67 1.65 2.34 3.3 2 5 C0.02 5 -1.96 5 -4 5 C-4 4.34 -4 3.68 -4 3 C-2.35 3 -0.7 3 1 3 C0.67 2.01 0.34 1.02 0 0 Z " fill="#F0E6E3" transform="translate(410,361)"/>
<path d="M0 0 C2.0625 0.4375 2.0625 0.4375 4 1 C3.67 2.32 3.34 3.64 3 5 C2.01 5 1.02 5 0 5 C-0.5625 3.0625 -0.5625 3.0625 -1 1 C-0.67 0.67 -0.34 0.34 0 0 Z " fill="#15425B" transform="translate(462,302)"/>
<path d="M0 0 C1.65 0 3.3 0 5 0 C4.67 2.31 4.34 4.62 4 7 C0 2.25 0 2.25 0 0 Z " fill="#CED4D7" transform="translate(672,210)"/>
<path d="M0 0 C0.99 0 1.98 0 3 0 C3 1.32 3 2.64 3 4 C2.34 4 1.68 4 1 4 C1 6.31 1 8.62 1 11 C0.67 11 0.34 11 0 11 C0 7.37 0 3.74 0 0 Z " fill="#959595" transform="translate(423,298)"/>
<path d="M0 0 C0.99 0 1.98 0 3 0 C3 1.32 3 2.64 3 4 C2.34 4 1.68 4 1 4 C1 5.98 1 7.96 1 10 C0.67 10 0.34 10 0 10 C0 6.7 0 3.4 0 0 Z " fill="#F1ECEA" transform="translate(431,355)"/>
<path d="M0 0 C1.38111722 2.2747813 2.05694702 3.50171361 1.75 6.1875 C1 8 1 8 -1 9 C-1 7.68 -1 6.36 -1 5 C-1.66 4.67 -2.32 4.34 -3 4 C-2.34 3.67 -1.68 3.34 -1 3 C-0.67 2.01 -0.34 1.02 0 0 Z " fill="#D9D9D9" transform="translate(419,326)"/>
<path d="M0 0 C0.99 0 1.98 0 3 0 C2.34 2.97 1.68 5.94 1 9 C0.67 9 0.34 9 0 9 C-1.125 3.375 -1.125 3.375 0 0 Z " fill="#C0C0C0" transform="translate(412,300)"/>
<path d="M0 0 C1.98 0.495 1.98 0.495 4 1 C4 1.99 4 2.98 4 4 C2.35 3.67 0.7 3.34 -1 3 C-0.67 2.01 -0.34 1.02 0 0 Z " fill="#0D3B56" transform="translate(462,330)"/>
<path d="M0 0 C0 1.32 0 2.64 0 4 C-1.65 4 -3.3 4 -5 4 C-5 3.01 -5 2.02 -5 1 C-2 0 -2 0 0 0 Z " fill="#BCBCBC" transform="translate(392,327)"/>
<path d="M0 0 C1.32 0.99 2.64 1.98 4 3 C3.34 3 2.68 3 2 3 C2 3.99 2 4.98 2 6 C2.66 6.33 3.32 6.66 4 7 C2.68 7 1.36 7 0 7 C0 4.69 0 2.38 0 0 Z " fill="#0B3A54" transform="translate(438,306)"/>
<path d="M0 0 C1.32 0.33 2.64 0.66 4 1 C3.67 2.32 3.34 3.64 3 5 C2.01 4.67 1.02 4.34 0 4 C0 2.68 0 1.36 0 0 Z " fill="#113D56" transform="translate(451,302)"/>
</svg>
