<svg xmlns="http://www.w3.org/2000/svg" version="1.1" xmlns:xlink="http://www.w3.org/1999/xlink" width="1000" height="1000"><g clip-path="url(#SvgjsClipPath1058)"><rect width="1000" height="1000" fill="#ffffff"></rect><g transform="matrix(2.2900763358778624,0,0,2.2900763358778624,91.22137404580155,50.00000000000006)"><svg xmlns="http://www.w3.org/2000/svg" version="1.1" xmlns:xlink="http://www.w3.org/1999/xlink" width="357" height="393"><svg version="1.1" xmlns="http://www.w3.org/2000/svg" width="357" height="393">
<path d="M0 0 C117.81 0 235.62 0 357 0 C357 129.69 357 259.38 357 393 C239.19 393 121.38 393 0 393 C0 263.31 0 133.62 0 0 Z " fill="#222222" transform="translate(0,0)"></path>
<path d="M0 0 C117.81 0 235.62 0 357 0 C357 129.69 357 259.38 357 393 C239.19 393 121.38 393 0 393 C0 263.31 0 133.62 0 0 Z M148 33 C146.57441801 33.834601 145.1474705 34.66687691 143.71875 35.49609375 C141.01626494 37.06942889 138.32369002 38.65813455 135.63671875 40.2578125 C129.97521229 43.61937113 124.2678787 46.90114466 118.5625 50.1875 C116.90202637 51.14426636 116.90202637 51.14426636 115.20800781 52.12036133 C112.93712726 53.428586 110.66613015 54.73660837 108.39501953 56.04443359 C102.92830025 59.19332051 97.46422354 62.3467849 92 65.5 C84.38301664 69.89531761 76.76490374 74.28865411 69.14404297 78.67724609 C66.97768203 79.92658435 64.81262454 81.17818573 62.64892578 82.43212891 C57.22520194 85.57487052 51.78722919 88.68512839 46.3125 91.73828125 C45.2311377 92.34921631 44.14977539 92.96015137 43.03564453 93.58959961 C41.00254354 94.73806767 38.96232568 95.8740741 36.91357422 96.99438477 C30.05962842 100.89528163 23.61301091 105.77397818 20 113 C19.89688051 115.211652 19.86045072 117.42649187 19.85282898 119.64053345 C19.84915229 120.33080167 19.8454756 121.0210699 19.8416875 121.73225534 C19.83063108 124.05669979 19.82680348 126.38109957 19.82299805 128.70556641 C19.81673473 130.36773827 19.81008805 132.02990872 19.80308533 133.69207764 C19.78566014 138.21714055 19.77511882 142.74219289 19.7668798 147.26728106 C19.76173146 150.09458506 19.75565556 152.92188578 19.74936867 155.74918747 C19.7303099 164.59544563 19.71608183 173.44169543 19.7077567 182.28797019 C19.69798937 192.49835958 19.6716859 202.7085319 19.63125581 212.91884482 C19.60108117 220.81024185 19.58628643 228.70157673 19.58297569 236.59303033 C19.58062618 241.3061125 19.5716792 246.01896293 19.54651451 250.73198318 C19.52320604 255.16926157 19.51901167 259.60615614 19.52927589 264.04347992 C19.52977074 265.66881717 19.52346546 267.29417347 19.50971985 268.91945267 C19.26591289 281.75357823 19.26591289 281.75357823 25.49033642 292.6225071 C30.2557104 297.24887768 36.3636671 300.28635909 42.12042236 303.48904419 C44.62122926 304.88040206 47.112292 306.28882245 49.60418701 307.69606018 C50.88270541 308.41783171 52.1617193 309.13872623 53.44122314 309.85874939 C59.37208416 313.19829809 65.25345191 316.61981021 71.125 320.0625 C79.35969408 324.880956 87.60920853 329.67257242 95.875 334.4375 C96.95394531 335.05947266 98.03289062 335.68144531 99.14453125 336.32226562 C102.42942992 338.21529126 105.71465103 340.10775598 109 342 C113.37542829 344.52009089 117.75048807 347.04081873 122.125 349.5625 C123.19161865 350.17722168 124.2582373 350.79194336 125.35717773 351.42529297 C133.8663192 356.33433853 142.35328569 361.2808645 150.82275391 366.25805664 C153.54174223 367.85073032 156.26891075 369.42818012 159 371 C159.9593042 371.55985596 160.9186084 372.11971191 161.90698242 372.6965332 C169.32865567 376.91817961 175.42217616 379.34015362 184 377 C190.08625027 374.55437726 195.6559863 371.08440448 201.24023438 367.67675781 C205.00719578 365.3880555 208.82365656 363.18854162 212.63867188 360.98120117 C215.67653065 359.22012722 218.70622788 357.44568337 221.734375 355.66796875 C228.09771035 351.93674029 234.48349555 348.24521942 240.875 344.5625 C241.95475098 343.94020508 243.03450195 343.31791016 244.14697266 342.67675781 C246.33714534 341.41471274 248.52741243 340.15283148 250.71777344 338.89111328 C256.14659941 335.76319852 261.57319975 332.63142753 267 329.5 C282.5835767 320.50888679 282.5835767 320.50888679 290.11010742 316.17016602 C292.30802531 314.90179532 294.50482579 313.6314861 296.70043945 312.35913086 C301.64739342 309.49438756 306.60275445 306.65388217 311.609375 303.89453125 C312.47248291 303.41274414 313.33559082 302.93095703 314.22485352 302.43457031 C315.7937932 301.56043122 317.36923504 300.69779122 318.95288086 299.85058594 C325.90093984 295.95154858 331.45890569 290.69360008 334 283 C334.30514809 279.68529909 334.30514809 279.68529909 334.26742554 276.02993774 C334.27422221 274.99575748 334.27422221 274.99575748 334.28115618 273.94068468 C334.29378778 271.63698282 334.29218065 269.33351775 334.29052734 267.02978516 C334.29651335 265.37539873 334.30331907 263.7210151 334.31088257 262.06663513 C334.32854182 257.57692001 334.3332379 253.08728115 334.33451414 248.59753466 C334.33593627 245.79148981 334.34020702 242.98546432 334.34550858 240.17942429 C334.36400817 230.3871818 334.37217922 220.59499375 334.37060547 210.80273438 C334.36940389 201.67942456 334.39050969 192.55635126 334.4220928 183.4331013 C334.44825528 175.59600196 334.45897279 167.75897988 334.45769465 159.92183721 C334.45718503 155.24293856 334.46286805 150.56425015 334.48405075 145.88539505 C334.50343284 141.4841749 334.50355791 137.08336556 334.48901749 132.68213081 C334.48692829 131.06927833 334.49163695 129.45640013 334.5037384 127.84359169 C334.51922232 125.6365908 334.50986399 123.43100099 334.49447632 121.22402954 C334.49556585 119.99071207 334.49665539 118.7573946 334.49777794 117.48670387 C333.52164212 110.64932467 329.61846149 106.06068126 324.4140625 101.75048828 C319.71267751 98.3414136 314.61380961 95.6699306 309.5 92.9375 C307.07147574 91.61829139 304.64717076 90.29140388 302.22265625 88.96484375 C301.61289444 88.6323764 301.00313263 88.29990906 300.37489319 87.95736694 C294.49890327 84.74631775 288.71023148 81.39294055 282.9375 78 C280.96486501 76.84241168 278.99220863 75.68485982 277.01953125 74.52734375 C276.03549316 73.94968262 275.05145508 73.37202148 274.03759766 72.77685547 C268.74689393 69.68203617 263.43588387 66.62251835 258.125 63.5625 C257.04613525 62.94060791 255.96727051 62.31871582 254.85571289 61.67797852 C251.57076273 59.78481953 248.28544532 57.89229952 245 56 C240.6245717 53.4799091 236.24959348 50.95903975 231.875 48.4375 C230.80765625 47.82277832 229.7403125 47.20805664 228.640625 46.57470703 C223.23226382 43.45620265 217.83438534 40.32131884 212.453125 37.15625 C211.38980957 36.53177979 210.32649414 35.90730957 209.23095703 35.26391602 C207.24032967 34.09335453 205.25154701 32.91964691 203.26513672 31.74194336 C180.31150923 18.249015 170.51531438 19.48165204 148 33 Z " fill="#FDFDFD" transform="translate(0,0)"></path>
<path d="M0 0 C3.25696479 0.41755959 4.63443291 0.63443291 7 3 C7 4.32 7 5.64 7 7 C7.55042969 7.103125 8.10085937 7.20625 8.66796875 7.3125 C11.5132635 8.15131386 13.75719166 9.49645223 16.3125 11 C20.75262457 13.49311807 23.9858891 14.57326716 29 15 C29.66 15.66 30.32 16.32 31 17 C30.625 19.625 30.625 19.625 30 22 C27.23735711 22.59732819 24.83967231 23 22 23 C20.3174387 24.31321858 18.65002828 25.64613064 17 27 C16.34 27 15.68 27 15 27 C15.01160156 27.61488281 15.02320313 28.22976562 15.03515625 28.86328125 C15.04417969 29.67152344 15.05320313 30.47976562 15.0625 31.3125 C15.07410156 32.11300781 15.08570313 32.91351563 15.09765625 33.73828125 C15 36 15 36 14 39 C14.7425 39.268125 15.485 39.53625 16.25 39.8125 C19 41 19 41 21 42.6875 C23.69507934 44.45614582 24.94605207 43.62645086 28 43 C29.875 44.125 29.875 44.125 31 46 C30.6875 48.6875 30.6875 48.6875 30 51 C27.6875 51.625 27.6875 51.625 25 52 C24.01 51.34 23.02 50.68 22 50 C21.67 50.99 21.34 51.98 21 53 C18.34765625 54.82421875 18.34765625 54.82421875 15.0625 56.6875 C13.98097656 57.31011719 12.89945313 57.93273437 11.78515625 58.57421875 C9 60 9 60 7 60 C6.814375 60.928125 6.814375 60.928125 6.625 61.875 C6 64 6 64 4 66 C1.375 65.625 1.375 65.625 -1 65 C-1.66 63.02 -2.32 61.04 -3 59 C-4.07314453 58.84724609 -4.07314453 58.84724609 -5.16796875 58.69140625 C-8.34541039 57.91567222 -10.54761835 56.67015917 -13.3125 54.9375 C-14.19550781 54.38964844 -15.07851562 53.84179688 -15.98828125 53.27734375 C-16.98408203 52.64505859 -16.98408203 52.64505859 -18 52 C-17.67 51.01 -17.34 50.02 -17 49 C-17.556875 49.515625 -18.11375 50.03125 -18.6875 50.5625 C-21 52 -21 52 -23.75 51.6875 C-24.4925 51.460625 -25.235 51.23375 -26 51 C-26.625 48.125 -26.625 48.125 -27 45 C-26.34 44.34 -25.68 43.68 -25 43 C-21.875 43.375 -21.875 43.375 -19 44 C-19 44.66 -19 45.32 -19 46 C-18.34 46 -17.68 46 -17 46 C-17.495 44.515 -17.495 44.515 -18 43 C-16.02 41.68 -14.04 40.36 -12 39 C-11.01 39.66 -10.02 40.32 -9 41 C-9.33 40.319375 -9.66 39.63875 -10 38.9375 C-11.45990674 34.64902396 -11.73856373 30.80024909 -10 26.5625 C-9.67 26.046875 -9.34 25.53125 -9 25 C-9.66 25 -10.32 25 -11 25 C-11.33 25.66 -11.66 26.32 -12 27 C-12.86625 26.34 -13.7325 25.68 -14.625 25 C-18.27495286 22.83706497 -19.88424061 22.81292003 -24 23 C-26 21 -26 21 -26.25 18.5 C-26 16 -26 16 -24 14 C-23.28199219 14.21527344 -22.56398437 14.43054688 -21.82421875 14.65234375 C-17.60485729 15.17173956 -15.10952444 12.90176812 -11.8125 10.5625 C-5.20263744 6 -5.20263744 6 -3 6 C-2.690625 5.195625 -2.38125 4.39125 -2.0625 3.5625 C-1 1 -1 1 0 0 Z " fill="#2B2B2B" transform="translate(175,193)"></path>
<path d="M0 0 C3.25696479 0.41755959 4.63443291 0.63443291 7 3 C7 4.32 7 5.64 7 7 C7.55042969 7.103125 8.10085937 7.20625 8.66796875 7.3125 C11.5132635 8.15131386 13.75719166 9.49645223 16.3125 11 C20.75262457 13.49311807 23.9858891 14.57326716 29 15 C29.66 15.66 30.32 16.32 31 17 C30.625 19.625 30.625 19.625 30 22 C27.23735711 22.59732819 24.83967231 23 22 23 C21.21625 23.680625 20.4325 24.36125 19.625 25.0625 C17 27 17 27 14.375 26.9375 C11.85138314 25.94133545 10.81029846 24.96771572 9 23 C4.62971227 20.31930515 0.85104528 20.87226623 -4 22 C-6.32219658 23.44730093 -6.32219658 23.44730093 -8 25 C-8.99 25 -9.98 25 -11 25 C-11.33 25.66 -11.66 26.32 -12 27 C-12.86625 26.34 -13.7325 25.68 -14.625 25 C-18.27495286 22.83706497 -19.88424061 22.81292003 -24 23 C-26 21 -26 21 -26.25 18.5 C-26 16 -26 16 -24 14 C-23.28199219 14.21527344 -22.56398437 14.43054688 -21.82421875 14.65234375 C-17.60485729 15.17173956 -15.10952444 12.90176812 -11.8125 10.5625 C-5.20263744 6 -5.20263744 6 -3 6 C-2.690625 5.195625 -2.38125 4.39125 -2.0625 3.5625 C-1 1 -1 1 0 0 Z " fill="#3B3B3B" transform="translate(175,193)"></path>
<path d="M0 0 C2.70552388 2.19823815 4.44778333 3.89556667 6 7 C7.02705184 18.24705946 7.02705184 18.24705946 4.25 22.625 C0.7435852 26.32621562 -0.80335316 26.88603363 -5.9375 27.375 C-9.09516598 27.29267724 -10.04689792 26.97145344 -12.875 25.25 C-17.37247812 20.48796435 -17.42909361 16.29334007 -17.3203125 9.921875 C-16.86364707 5.75619526 -15.86783 4.02715389 -13 1 C-8.67023989 -1.67773424 -4.79711215 -1.35105832 0 0 Z " fill="#262626" transform="translate(95,142)"></path>
<path d="M0 0 C2.67690301 2.08203567 3.90289301 3.6303838 5.25 6.75 C5.8201247 11.97614305 5.07117855 15.31671942 2.25 19.75 C-0.99046144 22.68666818 -3.68514935 23.64954239 -8.0625 24.0625 C-12.50886282 23.68568959 -14.38948122 22.65226622 -17.75 19.75 C-20.660372 15.384442 -21.4006249 11.95499921 -20.75 6.75 C-18.8188665 2.73324232 -17.29365552 1.06798719 -13.4375 -1.1875 C-8.30840192 -2.66537572 -4.82953693 -2.19524406 0 0 Z " fill="#EFEFEF" transform="translate(184.75,215.25)"></path>
<path d="M0 0 C13.46015143 -0.37046288 13.46015143 -0.37046288 15.9296875 1.32421875 C17.58647842 3.91824541 17.31241021 6.00086201 17 9 C16.01 10.485 16.01 10.485 15 12 C16.0209375 12.7734375 16.0209375 12.7734375 17.0625 13.5625 C19 16 19 16 19.125 19.5 C18 23 18 23 15.6875 25.4375 C12 27 12 27 0 27 C0 18.09 0 9.18 0 0 Z " fill="#F1F1F1" transform="translate(191,142)"></path>
<path d="M0 0 C0.433125 0.61875 0.86625 1.2375 1.3125 1.875 C2.99740483 4.2197245 2.99740483 4.2197245 6 6 C5.34 6 4.68 6 4 6 C4 8.97 4 11.94 4 15 C4.66 15.33 5.32 15.66 6 16 C5.45730469 16.19335938 4.91460937 16.38671875 4.35546875 16.5859375 C3.28232422 16.97652344 3.28232422 16.97652344 2.1875 17.375 C1.47980469 17.63023437 0.77210938 17.88546875 0.04296875 18.1484375 C-2.24773359 19.0265769 -2.24773359 19.0265769 -5 21 C-5.99 21 -6.98 21 -8 21 C-8.33 21.66 -8.66 22.32 -9 23 C-9.86625 22.34 -10.7325 21.68 -11.625 21 C-15.27495286 18.83706497 -16.88424061 18.81292003 -21 19 C-23 17 -23 17 -23.25 14.5 C-23 12 -23 12 -21 10 C-20.28199219 10.21527344 -19.56398437 10.43054688 -18.82421875 10.65234375 C-14.60485729 11.17173956 -12.10952444 8.90176812 -8.8125 6.5625 C-2.20263744 2 -2.20263744 2 0 2 C0 1.34 0 0.68 0 0 Z " fill="#2C2C2C" transform="translate(172,197)"></path>
<path d="M0 0 C0.72703125 0.50660156 0.72703125 0.50660156 1.46875 1.0234375 C6.27195564 4.21941664 10.33999894 5.88821408 16 7 C14.68 7.33 13.36 7.66 12 8 C12.33 11.3 12.66 14.6 13 18 C8.75882154 20.12058923 8.23910182 20.34035141 4 19 C1.32421875 17.58984375 1.32421875 17.58984375 -1.3125 15.9375 C-2.19550781 15.38964844 -3.07851562 14.84179688 -3.98828125 14.27734375 C-4.65214844 13.85582031 -5.31601563 13.43429688 -6 13 C-5.67 12.01 -5.34 11.02 -5 10 C-5.556875 10.515625 -6.11375 11.03125 -6.6875 11.5625 C-9 13 -9 13 -11.75 12.6875 C-12.4925 12.460625 -13.235 12.23375 -14 12 C-14.625 9.125 -14.625 9.125 -15 6 C-14.34 5.34 -13.68 4.68 -13 4 C-9.875 4.375 -9.875 4.375 -7 5 C-7 5.66 -7 6.32 -7 7 C-6.34 7 -5.68 7 -5 7 C-5.33 6.01 -5.66 5.02 -6 4 C-4.02 2.68 -2.04 1.36 0 0 Z " fill="#272727" transform="translate(163,232)"></path>
<path d="M0 0 C2.70552388 2.19823815 4.44778333 3.89556667 6 7 C7.02705184 18.24705946 7.02705184 18.24705946 4.25 22.625 C0.7435852 26.32621562 -0.80335316 26.88603363 -5.9375 27.375 C-9.09516598 27.29267724 -10.04689792 26.97145344 -12.875 25.25 C-17.37247812 20.48796435 -17.42909361 16.29334007 -17.3203125 9.921875 C-16.86364707 5.75619526 -15.86783 4.02715389 -13 1 C-8.67023989 -1.67773424 -4.79711215 -1.35105832 0 0 Z M-11.375 3.75 C-13.87755953 8.75511905 -13.86204199 13.51771539 -13 19 C-11.20299181 22.46784527 -11.20299181 22.46784527 -8 24 C-4.36174137 24.25411568 -4.36174137 24.25411568 -1 23 C2.08877161 19.88249563 2.45649789 17.37464694 2.5 13.0625 C2.38755043 8.87630936 2.21569459 7.32988585 -0.125 3.75 C-4.46171834 1.1102584 -7.18955413 0.66598726 -11.375 3.75 Z " fill="#ECECEC" transform="translate(95,142)"></path>
<path d="M0 0 C1.98 0.66 3.96 1.32 6 2 C6.14515677 5.10367497 6.23400853 8.20648027 6.3125 11.3125 C6.3753418 12.63411133 6.3753418 12.63411133 6.43945312 13.98242188 C6.48574538 16.41739447 6.47582772 18.6105298 6 21 C3.60546875 23.16796875 3.60546875 23.16796875 1 24 C-1.63281459 22.6835927 -3.70550489 20.83559609 -6 19 C-6.66 18.67 -7.32 18.34 -8 18 C-8 13.71 -8 9.42 -8 5 C-6.68 4.67 -5.36 4.34 -4 4 C-1.77022004 2.02098426 -1.77022004 2.02098426 0 0 Z " fill="#262626" transform="translate(197,214)"></path>
<path d="M0 0 C2.875 1.5 2.875 1.5 5 4 C5.42242213 6.80188855 5.23816991 9.1419611 5 12 C0.71 12 -3.58 12 -8 12 C-7.01 13.65 -6.02 15.3 -5 17 C-2.72668201 17.60169446 -2.72668201 17.60169446 -0.3125 17.3125 C0.49574219 17.26738281 1.30398437 17.22226563 2.13671875 17.17578125 C2.75160156 17.11777344 3.36648437 17.05976563 4 17 C4 17.99 4 18.98 4 20 C0.36217368 21.21260877 -2.17735999 21.39544552 -6 21 C-9.02596031 18.96076588 -10.59473125 17.3834174 -11.6328125 13.83984375 C-12.23057046 10.03072655 -12.27660229 7.65001538 -10.75 4.0625 C-7.44283433 0.16476903 -4.97151686 -0.59658202 0 0 Z " fill="#E6E6E6" transform="translate(225,148)"></path>
<path d="M0 0 C3.74301784 0.87602545 5.4331623 1.74122035 7.9375 4.6875 C8.35992213 7.48938855 8.17566991 9.8294611 7.9375 12.6875 C3.6475 12.6875 -0.6425 12.6875 -5.0625 12.6875 C-4.0725 14.3375 -3.0825 15.9875 -2.0625 17.6875 C0.21081799 18.28919446 0.21081799 18.28919446 2.625 18 C3.43324219 17.95488281 4.24148437 17.90976563 5.07421875 17.86328125 C5.68910156 17.80527344 6.30398437 17.74726563 6.9375 17.6875 C6.9375 18.6775 6.9375 19.6675 6.9375 20.6875 C3.29967368 21.90010877 0.76014001 22.08294552 -3.0625 21.6875 C-6.85851043 19.12931906 -8.38400637 16.71777195 -9.25 12.3125 C-9.47504378 8.58052406 -8.77939294 6.58221242 -6.5 3.625 C-4.19465319 1.33032609 -3.25796959 0.73138093 0 0 Z " fill="#E7E7E7" transform="translate(154.0625,147.3125)"></path>
<path d="M0 0 C2.1875 1.625 2.1875 1.625 4.1875 4.625 C4.3125 7.8125 4.3125 7.8125 4.1875 10.625 C1.23737143 9.25529745 -1.3777222 7.79890875 -3.8125 5.625 C-3.8125 4.635 -3.8125 3.645 -3.8125 2.625 C-6.97527272 4.20638636 -7.24343689 6.95096051 -8.4375 10.1875 C-8.88351563 11.38503906 -9.32953125 12.58257812 -9.7890625 13.81640625 C-10.12679687 14.74324219 -10.46453125 15.67007813 -10.8125 16.625 C-12.4625 14.975 -14.1125 13.325 -15.8125 11.625 C-14.4925 9.645 -13.1725 7.665 -11.8125 5.625 C-12.76125 6.40875 -13.71 7.1925 -14.6875 8 C-15.22117188 8.44085938 -15.75484375 8.88171875 -16.3046875 9.3359375 C-17.52301161 10.37750992 -18.67910097 11.49160097 -19.8125 12.625 C-20.42252179 5.42674292 -20.42252179 5.42674292 -17.625 1.75 C-11.65265461 -2.76243874 -6.91672881 -3.38151186 0 0 Z " fill="#F5F5F5" transform="translate(184.8125,215.375)"></path>
<path d="M0 0 C1.32 0 2.64 0 4 0 C4 1.98 4 3.96 4 6 C5.65 6 7.3 6 9 6 C9 6.99 9 7.98 9 9 C7.35 9 5.7 9 4 9 C4.33 13.62 4.66 18.24 5 23 C6.32 23.33 7.64 23.66 9 24 C8.67 24.99 8.34 25.98 8 27 C5.6875 27.25 5.6875 27.25 3 27 C0.39753483 24.54484418 0.01266003 23.14921951 -0.29296875 19.546875 C-0.25816406 18.29390625 -0.22335938 17.0409375 -0.1875 15.75 C-0.16042969 14.48671875 -0.13335937 13.2234375 -0.10546875 11.921875 C-0.07066406 10.95765625 -0.03585938 9.9934375 0 9 C-0.99 9 -1.98 9 -3 9 C-3 8.34 -3 7.68 -3 7 C-2.01 7 -1.02 7 0 7 C0 4.69 0 2.38 0 0 Z " fill="#E3E3E3" transform="translate(250,142)"></path>
<path d="M0 0 C1.859375 0.1328125 1.859375 0.1328125 4 1 C5.265625 3.6171875 5.265625 3.6171875 6.25 6.875 C6.75273437 8.47988281 6.75273437 8.47988281 7.265625 10.1171875 C8 13 8 13 8 16 C8.66 16 9.32 16 10 16 C10.0825 15.030625 10.165 14.06125 10.25 13.0625 C10.8999125 8.32880899 12.92305323 4.26015593 15 0 C15.99 0 16.98 0 18 0 C17.34539858 2.77051221 16.54456107 5.42804125 15.58984375 8.109375 C15.32236328 8.86347656 15.05488281 9.61757812 14.77929688 10.39453125 C14.50150391 11.17183594 14.22371094 11.94914063 13.9375 12.75 C13.65583984 13.54277344 13.37417969 14.33554688 13.08398438 15.15234375 C12.39098013 17.1021523 11.69571181 19.05115589 11 21 C8.70703125 21.0234375 8.70703125 21.0234375 6 20 C4.4259756 17.37215957 3.59014075 14.54012475 2.6875 11.625 C2.42388672 10.84382812 2.16027344 10.06265625 1.88867188 9.2578125 C0.81703091 6.00670432 0 3.44945904 0 0 Z " fill="#E4E4E4" transform="translate(125,148)"></path>
<path d="M0 0 C0.66 1.32 1.32 2.64 2 4 C-0.64 4 -3.28 4 -6 4 C-6.04289755 5.93109581 -6.04289755 5.93109581 -5 8 C-3.2675 8.6496875 -3.2675 8.6496875 -1.5 9.3125 C0.2325 10.1478125 0.2325 10.1478125 2 11 C3.125 14.5 3.125 14.5 3 18 C1.78515625 19.70703125 1.78515625 19.70703125 0 21 C-2.26171875 21.29296875 -2.26171875 21.29296875 -4.6875 21.1875 C-5.49574219 21.16042969 -6.30398438 21.13335937 -7.13671875 21.10546875 C-7.75160156 21.07066406 -8.36648438 21.03585938 -9 21 C-9.66 19.68 -10.32 18.36 -11 17 C-7.7 17 -4.4 17 -1 17 C-1 16.01 -1 15.02 -1 14 C-3.97 12.35 -6.94 10.7 -10 9 C-10.35789474 3.63157895 -10.35789474 3.63157895 -8.9375 1.125 C-5.99772876 -0.58196395 -3.32129197 -0.18799766 0 0 Z " fill="#F0F0F0" transform="translate(273,148)"></path>
<path d="M0 0 C1.32 0 2.64 0 4 0 C4 1.98 4 3.96 4 6 C5.65 6 7.3 6 9 6 C9 6.99 9 7.98 9 9 C7.02 9 5.04 9 3 9 C3.33 13.95 3.66 18.9 4 24 C5.65 24 7.3 24 9 24 C8.67 24.99 8.34 25.98 8 27 C5.6875 27.25 5.6875 27.25 3 27 C0.39753483 24.54484418 0.01266003 23.14921951 -0.29296875 19.546875 C-0.25816406 18.29390625 -0.22335938 17.0409375 -0.1875 15.75 C-0.16042969 14.48671875 -0.13335937 13.2234375 -0.10546875 11.921875 C-0.07066406 10.95765625 -0.03585938 9.9934375 0 9 C-0.99 9 -1.98 9 -3 9 C-3 8.34 -3 7.68 -3 7 C-2.01 7 -1.02 7 0 7 C0 4.69 0 2.38 0 0 Z " fill="#ECECEC" transform="translate(236,142)"></path>
<path d="M0 0 C8.625 -0.25 8.625 -0.25 12 2 C12.4375 4.4375 12.4375 4.4375 12 7 C10.5 8.8125 10.5 8.8125 8 10 C5.27920155 10.23884872 2.74185932 10.13709297 0 10 C0 6.7 0 3.4 0 0 Z " fill="#252525" transform="translate(194,156)"></path>
<path d="M0 0 C0.99 0 1.98 0 3 0 C3 8.91 3 17.82 3 27 C3.66 27 4.32 27 5 27 C5 27.99 5 28.98 5 30 C3.35 29.67 1.7 29.34 0 29 C0 19.43 0 9.86 0 0 Z " fill="#FCFCFC" transform="translate(107,139)"></path>
<path d="M0 0 C7.39954511 -0.36391205 7.39954511 -0.36391205 10.0625 1.25 C11 3 11 3 10.8125 5.0625 C10 7 10 7 8 9 C5.31160615 9.26991906 2.70858064 9.08737357 0 9 C0 6.03 0 3.06 0 0 Z " fill="#2E2E2E" transform="translate(194,144)"></path>
<path d="M0 0 C1.32 0 2.64 0 4 0 C4 6.93 4 13.86 4 21 C2.68 21 1.36 21 0 21 C0 14.07 0 7.14 0 0 Z " fill="#D7D7D7" transform="translate(117,148)"></path>
<path d="M0 0 C1.32 0 2.64 0 4 0 C4 0.99 4 1.98 4 3 C2.7934375 3.4640625 2.7934375 3.4640625 1.5625 3.9375 C-0.89080405 4.76335345 -0.89080405 4.76335345 -2 6 C-2.23653523 8.52596259 -2.42173692 11.03107207 -2.5625 13.5625 C-2.60568359 14.27341797 -2.64886719 14.98433594 -2.69335938 15.71679688 C-2.79971777 17.47761912 -2.90038846 19.2387832 -3 21 C-3.99 21 -4.98 21 -6 21 C-6 14.4 -6 7.8 -6 1 C-4.68 1.33 -3.36 1.66 -2 2 C-1.34 1.34 -0.68 0.68 0 0 Z " fill="#FBFBFB" transform="translate(174,148)"></path>
<path d="M0 0 C3.125 0.375 3.125 0.375 6 1 C6.6875 3.3125 6.6875 3.3125 7 6 C5.875 7.875 5.875 7.875 4 9 C1.3125 8.6875 1.3125 8.6875 -1 8 C-1.625 5.125 -1.625 5.125 -2 2 C-1.34 1.34 -0.68 0.68 0 0 Z " fill="#EDEDED" transform="translate(150,236)"></path>
<path d="M0 0 C3.25696479 0.41755959 4.63443291 0.63443291 7 3 C6.625 5.625 6.625 5.625 6 8 C3.6875 8.6875 3.6875 8.6875 1 9 C-0.875 7.875 -0.875 7.875 -2 6 C-1.57894737 1.57894737 -1.57894737 1.57894737 0 0 Z " fill="#EAEAEA" transform="translate(199,236)"></path>
<path d="M0 0 C4.55555556 0.55555556 4.55555556 0.55555556 6 2 C6.1875 4.4375 6.1875 4.4375 6 7 C5.34 7.66 4.68 8.32 4 9 C-0.55555556 8.44444444 -0.55555556 8.44444444 -2 7 C-2.1875 4.5625 -2.1875 4.5625 -2 2 C-1.34 1.34 -0.68 0.68 0 0 Z " fill="#EEEEEE" transform="translate(175,193)"></path>
<path d="M0 0 C2.625 0.375 2.625 0.375 5 1 C5.93065133 3.60582371 6.14917407 4.64198224 5.0625 7.25 C4.711875 7.8275 4.36125 8.405 4 9 C-0.875 8.125 -0.875 8.125 -2 7 C-2.1875 4.5625 -2.1875 4.5625 -2 2 C-1.34 1.34 -0.68 0.68 0 0 Z " fill="#EFEFEF" transform="translate(151,207)"></path>
<path d="M0 0 C3 0.125 3 0.125 4 1.125 C4.1875 3.5625 4.1875 3.5625 4 6.125 C3.34 6.785 2.68 7.445 2 8.125 C-2.55555556 7.56944444 -2.55555556 7.56944444 -4 6.125 C-4.125 3.625 -4.125 3.625 -4 1.125 C-3 0.125 -3 0.125 0 0 Z " fill="#F5F5F5" transform="translate(177,250.875)"></path>
<path d="M0 0 C2.5625 0.1875 2.5625 0.1875 4.5625 2.1875 C4.1875 4.8125 4.1875 4.8125 3.5625 7.1875 C-1.1875 8.3125 -1.1875 8.3125 -3.4375 7.1875 C-3.48004356 5.18795254 -3.47830783 3.18708364 -3.4375 1.1875 C-2.4375 0.1875 -2.4375 0.1875 0 0 Z " fill="#F5F5F5" transform="translate(201.4375,207.8125)"></path>
<path d="M0 0 C0.99 0 1.98 0 3 0 C2.19429304 3.49422385 1.08208283 6.85317353 -0.0625 10.25 C-0.42472656 11.32765625 -0.78695312 12.4053125 -1.16015625 13.515625 C-1.57587891 14.74539062 -1.57587891 14.74539062 -2 16 C-2.99 16 -3.98 16 -5 16 C-4.49228528 10.03435204 -2.61407872 5.36190101 0 0 Z " fill="#DEDEDE" transform="translate(140,148)"></path>
<path d="M0 0 C2.5 0.25 2.5 0.25 4.5 2.25 C4.5 3.57 4.5 4.89 4.5 6.25 C1.2 6.25 -2.1 6.25 -5.5 6.25 C-4.03846154 0.40384615 -4.03846154 0.40384615 0 0 Z " fill="#313131" transform="translate(222.5,150.75)"></path>
<path d="M0 0 C2.5 0.25 2.5 0.25 4.5 2.25 C4.5 3.57 4.5 4.89 4.5 6.25 C1.2 6.25 -2.1 6.25 -5.5 6.25 C-4.03846154 0.40384615 -4.03846154 0.40384615 0 0 Z " fill="#323232" transform="translate(154.5,150.75)"></path>
<path d="M0 0 C0.99 0 1.98 0 3 0 C3 5.28 3 10.56 3 16 C2.01 16 1.02 16 0 16 C0 10.72 0 5.44 0 0 Z " fill="#E7E7E7" transform="translate(200,218)"></path>
<path d="M0 0 C0.99 0 1.98 0 3 0 C3 5.28 3 10.56 3 16 C2.01 16 1.02 16 0 16 C0 10.72 0 5.44 0 0 Z " fill="#E9E9E9" transform="translate(151,218)"></path>
<path d="M0 0 C0.66 0.99 1.32 1.98 2 3 C0.07010782 4.19982444 -1.86919228 5.38452818 -3.8125 6.5625 C-5.43091797 7.55443359 -5.43091797 7.55443359 -7.08203125 8.56640625 C-10 10 -10 10 -13 9 C-9.39299028 4.76568424 -4.85413839 2.5307901 0 0 Z " fill="#E7E7E7" transform="translate(195,242)"></path>
<path d="M0 0 C-3.71274665 4.5565527 -8.79007402 6.57400393 -14 9 C-14.33 8.01 -14.66 7.02 -15 6 C-13.07010782 4.80017556 -11.13080772 3.61547182 -9.1875 2.4375 C-8.10855469 1.77621094 -7.02960938 1.11492187 -5.91796875 0.43359375 C-3 -1 -3 -1 0 0 Z " fill="#E8E8E8" transform="translate(172,201)"></path>
<path d="M0 0 C5.1576857 1.41836357 9.79975258 3.67391575 14 7 C14 7.66 14 8.32 14 9 C9.93774452 8.42176904 7.15237654 7.10882263 3.6875 4.9375 C2.80449219 4.38964844 1.92148438 3.84179688 1.01171875 3.27734375 C0.34785156 2.85582031 -0.31601563 2.43429688 -1 2 C-0.67 1.34 -0.34 0.68 0 0 Z " fill="#ECECEC" transform="translate(158,243)"></path>
<path d="M0 0 C4.97209562 1.76429199 9.43438061 4.3939166 14 7 C13.01 8.485 13.01 8.485 12 10 C5.565 6.04 5.565 6.04 -1 2 C-0.67 1.34 -0.34 0.68 0 0 Z " fill="#ECECEC" transform="translate(183,200)"></path>
<path d="M0 0 C0.66 0 1.32 0 2 0 C0.33846988 5.85659906 -1.47041916 11.4590134 -4 17 C-4.66 17 -5.32 17 -6 17 C-5.34496718 12.94180817 -4.05440879 9.46028718 -2.4375 5.6875 C-1.75494141 4.08455078 -1.75494141 4.08455078 -1.05859375 2.44921875 C-0.53458984 1.23685547 -0.53458984 1.23685547 0 0 Z " fill="#404040" transform="translate(179,218)"></path>
<path d="M0 0 C1.32 0 2.64 0 4 0 C4 2.64 4 5.28 4 8 C2.68 8 1.36 8 0 8 C0 5.36 0 2.72 0 0 Z " fill="#AEAEAE" transform="translate(175,241)"></path>
<path d="M0 0 C3.36720387 1.39332574 4.9859524 2.9789286 7 6 C5.37660195 7.70884005 3.70680947 9.37446717 2 11 C1.34 11 0.68 11 0 11 C0.495 10.1028125 0.495 10.1028125 1 9.1875 C2.20787988 6.94613529 2.20787988 6.94613529 2 4 C1.05021103 1.84971696 1.05021103 1.84971696 0 0 Z " fill="#303030" transform="translate(181,221)"></path>
<path d="M0 0 C-0.33 0.598125 -0.66 1.19625 -1 1.8125 C-2.20787988 4.05386471 -2.20787988 4.05386471 -2 7 C-1.05021103 9.15028304 -1.05021103 9.15028304 0 11 C-3.36720387 9.60667426 -4.9859524 8.0210714 -7 5 C-2.25 0 -2.25 0 0 0 Z " fill="#343434" transform="translate(173,221)"></path>
<path d="M0 0 C0.66 0.99 1.32 1.98 2 3 C-0.3125 4.5625 -0.3125 4.5625 -3 6 C-3.99 5.67 -4.98 5.34 -6 5 C-2.25 1.125 -2.25 1.125 0 0 Z " fill="#E2E2E2" transform="translate(163,232)"></path>
<path d="M0 0 C3.465 1.98 3.465 1.98 7 4 C6.67 4.66 6.34 5.32 6 6 C3.97954558 5.39816251 1.97888961 4.72693904 0 4 C-0.33 3.34 -0.66 2.68 -1 2 C-0.67 1.34 -0.34 0.68 0 0 Z " fill="#E7E7E7" transform="translate(190,232)"></path>
<path d="M0 0 C1.32 0 2.64 0 4 0 C4 0.99 4 1.98 4 3 C2.02253397 3.73080266 0.01927511 4.39421747 -2 5 C-2.66 4.67 -3.32 4.34 -4 4 C-3.67 3.01 -3.34 2.02 -3 1 C-2.34 1 -1.68 1 -1 1 C-0.67 0.67 -0.34 0.34 0 0 Z " fill="#E5E5E5" transform="translate(174,148)"></path>
<path d="M0 0 C0.99 0.33 1.98 0.66 3 1 C1.37660195 2.70884005 -0.29319053 4.37446717 -2 6 C-2.66 6 -3.32 6 -4 6 C-3.6875 4.125 -3.6875 4.125 -3 2 C-2.01 1.34 -1.02 0.68 0 0 Z " fill="#E3E3E3" transform="translate(194,214)"></path>
<path d="M0 0 C2.91517292 1.07401108 4.77810176 1.77810176 7 4 C6.34 4.66 5.68 5.32 5 6 C3.02 4.68 1.04 3.36 -1 2 C-0.67 1.34 -0.34 0.68 0 0 Z " fill="#E2E2E2" transform="translate(158,214)"></path>
<path d="M0 0 C2.97 0.33 5.94 0.66 9 1 C7.68 1.33 6.36 1.66 5 2 C5 2.66 5 3.32 5 4 C3.0625 3.6875 3.0625 3.6875 1 3 C0.67 2.01 0.34 1.02 0 0 Z " fill="#D7D7D7" transform="translate(262,165)"></path>
<path d="M0 0 C1.65 0.33 3.3 0.66 5 1 C5.33 1.99 5.66 2.98 6 4 C3.69 3.67 1.38 3.34 -1 3 C-0.67 2.01 -0.34 1.02 0 0 Z " fill="#E3E3E3" transform="translate(269,148)"></path>
</svg></svg></g></g><defs><clipPath id="SvgjsClipPath1058"><rect width="1000" height="1000" x="0" y="0" rx="500" ry="500"></rect></clipPath></defs></svg>